<?xml version="1.0" encoding="UTF-8"?>
<svg id="Camada_1" data-name="Camada 1" xmlns="http://www.w3.org/2000/svg" viewBox="0 0 512 512">
  <defs>
    <style>
      .cls-1 {
        fill: none;
        stroke: #424242;
        stroke-miterlimit: 10;
        stroke-width: 12px;
      }

      .cls-2 {
        fill: #333;
      }

      .cls-2, .cls-3 {
        stroke-width: 0px;
      }

      .cls-3 {
        fill: #424242;
      }
    </style>
  </defs>
  <path class="cls-2" d="m256,24c31.33,0,61.71,6.13,90.3,18.22,27.62,11.68,52.44,28.42,73.75,49.73,21.31,21.31,38.05,46.13,49.73,73.75,12.09,28.59,18.22,58.97,18.22,90.3s-6.13,61.71-18.22,90.3c-11.68,27.62-28.42,52.44-49.73,73.75-21.31,21.31-46.13,38.05-73.75,49.73-28.59,12.09-58.97,18.22-90.3,18.22s-61.71-6.13-90.3-18.22c-27.62-11.68-52.44-28.42-73.75-49.73-21.31-21.31-38.05-46.13-49.73-73.75-12.09-28.59-18.22-58.97-18.22-90.3s6.13-61.71,18.22-90.3c11.68-27.62,28.42-52.44,49.73-73.75,21.31-21.31,46.13-38.05,73.75-49.73,28.59-12.09,58.97-18.22,90.3-18.22m0-24C114.62,0,0,114.62,0,256s114.62,256,256,256,256-114.62,256-256S397.38,0,256,0h0Z"/>
  <path class="cls-3" d="m256,52.5c27.48,0,54.13,5.38,79.2,15.98,24.23,10.25,46,24.92,64.69,43.62,18.7,18.7,33.37,40.46,43.62,64.69,10.61,25.07,15.98,51.72,15.98,79.2s-5.38,54.13-15.98,79.2c-10.25,24.23-24.92,46-43.62,64.69-18.7,18.7-40.46,33.37-64.69,43.62-25.07,10.61-51.72,15.98-79.2,15.98s-54.13-5.38-79.2-15.98c-24.23-10.25-46-24.92-64.69-43.62-18.7-18.7-33.37-40.46-43.62-64.69-10.61-25.07-15.98-51.72-15.98-79.2s5.38-54.13,15.98-79.2c10.25-24.23,24.92-46,43.62-64.69,18.7-18.7,40.46-33.37,64.69-43.62,25.07-10.61,51.72-15.98,79.2-15.98m0-24c-125.64,0-227.5,101.86-227.5,227.5s101.86,227.5,227.5,227.5,227.5-101.86,227.5-227.5S381.64,28.5,256,28.5h0Z"/>
  <circle class="cls-1" cx="256" cy="116.14" r="69.93"/>
  <circle class="cls-1" cx="256" cy="395.86" r="69.93"/>
  <circle class="cls-1" cx="376.18" cy="186.07" r="69.93"/>
  <circle class="cls-1" cx="376.18" cy="325.93" r="69.93"/>
  <circle class="cls-1" cx="136.05" cy="186.07" r="69.93"/>
  <circle class="cls-1" cx="136.05" cy="325.93" r="69.93"/>
  <circle class="cls-1" cx="316.09" cy="151.1" r="69.93"/>
  <circle class="cls-1" cx="316.09" cy="360.9" r="69.93"/>
  <circle class="cls-1" cx="196.09" cy="151.1" r="69.93"/>
  <circle class="cls-1" cx="196.09" cy="360.9" r="69.93"/>
  <circle class="cls-1" cx="376.18" cy="256" r="69.93"/>
  <circle class="cls-1" cx="136.05" cy="256" r="69.93"/>
  <circle class="cls-1" cx="256" cy="325.93" r="69.93"/>
  <circle class="cls-1" cx="256" cy="186.07" r="69.93"/>
  <circle class="cls-1" cx="316.09" cy="221.03" r="69.93"/>
  <circle class="cls-1" cx="316.09" cy="290.97" r="69.93"/>
  <circle class="cls-1" cx="196.09" cy="221.03" r="69.93"/>
  <circle class="cls-1" cx="196.09" cy="290.97" r="69.93"/>
  <circle class="cls-1" cx="256" cy="256" r="69.93"/>
</svg>