<svg version="1.1" xmlns="http://www.w3.org/2000/svg" width="36" height="32" viewBox="0 0 36 32">
<path d="M12.497 0.099c-0.191-0.063-0.411-0.099-0.64-0.099-0.584 0-1.112 0.238-1.494 0.621l-3.929 3.929 7.196 7.196-13.175 13.177c-0.281 0.28-0.454 0.667-0.454 1.095s0.174 0.815 0.454 1.095l4.431 4.434c0.28 0.28 0.667 0.454 1.095 0.454s0.814-0.173 1.095-0.454l21.701-21.701-6.625-6.62-9.656-3.125z"></path>
<path d="M35.836 16.909l-5.471-5.471-8.516 8.515 5.472 5.472c0.245 0.235 0.578 0.38 0.945 0.38 0.387 0 0.736-0.161 0.985-0.419l6.544-6.544c0.26-0.249 0.422-0.599 0.422-0.987 0-0.367-0.145-0.701-0.381-0.946l0 0-0 0z"></path>
</svg>
