<svg version="1.1" xmlns="http://www.w3.org/2000/svg" width="32" height="32" viewBox="0 0 32 32">
<path d="M28.27 0.138c-0.203 0.55-0.557 1.329-1.189 2.141-1.889 2.428-4.733 3.18-7.799 4.009-3.291 0.889-6.614 1.742-9.842 2.818-2.595 0.865-4.568 2.749-6.012 4.883-0.619 0.915-1.071 1.961-1.16 3.044-0.098 1.2 0.458 2.121 0.913 3.211 0.443 1.060 0.69 2.196 0.807 3.324 0.147 1.441-0.168 2.866-0.434 4.28-0.157 0.83-0.307 2.557-1.392 2.805-0.324 0.075-0.707 0.144-0.847 0.421-0.118 0.232 0.006 0.521 0.223 0.681s0.504 0.215 0.781 0.234c0.695 0.050 1.403-0.089 2.015-0.396 0.466-0.234 0.896-0.57 1.423-0.644 0.48-0.067 0.959 0.098 1.412 0.26 1.51 0.538 3.271 1.075 4.774 0.22 0.623-0.354 0.975-0.839 1.155-1.141-0.382-0.046-0.793-0.117-1.221-0.22-1.514-0.363-2.686-0.991-3.509-1.543-0.272-0.181 0.501-0.488 0.576-0.501 0.454-0.081 1.099 0.257 1.511 0.4 2.82 0.979 8.838 1.032 10.103-2.239 0.141-0.368 0.171-0.698 0.171-0.923-0.438 0.077-1.052 0.174-1.788 0.247-0.938 0.094-2.274 0.172-3.907 0.067-1.332-0.085-2.229-0.149-3.344-0.574-0.428-0.163-0.77-0.335-1.004-0.461-0.244-0.133 0.276-0.528 0.354-0.567 0.361-0.185 0.98-0.023 1.354 0.048 2.246 0.423 4.591 0.552 6.826 0.078 1.521-0.323 2.986-0.941 4.194-1.856 1.001-0.758 2.318-1.932 2.631-3.127 0.151-0.579 0.101-1.086 0.036-1.418-0.473 0.252-1.13 0.579-1.935 0.911-0.585 0.242-2.582 1.039-5.487 1.497-1.92 0.304-3.84 0.467-5.744 0-0.022-0.086-0.046-0.21-0.049-0.36-0.003-0.211-0.006-0.34 0.073-0.437 0.263-0.331 1.393-0.068 1.776-0.062 0.718 0.012 1.437-0.021 2.151-0.091 1.428-0.144 2.839-0.449 4.187-0.903 2.005-0.673 3.883-1.673 5.502-2.954 1.431-1.131 3.096-2.825 2.981-4.692-0.036-0.591-0.234-1.062-0.392-1.362-0.761 0.579-1.793 1.297-3.087 2.015-0.552 0.306-2.474 1.346-5.243 2.206-1.333 0.414-2.972 0.912-5.218 1.081-0.312 0.023-1.581 0.237-1.723-0.073-0.218-0.479 1.176-0.651 1.493-0.718 2.652-0.565 5.257-1.457 7.632-2.685 3.404-1.759 7.44-4.902 7.723-8.771 0.046-0.64-0.087-1.112-0.343-1.486-0.12-0.176-0.438-0.638-1.066-0.777-0.48-0.106-0.885 0.036-1.042 0.1z"></path>
</svg>
