<svg version="1.1" xmlns="http://www.w3.org/2000/svg" width="32" height="32" viewBox="0 0 32 32">
<path d="M9.377 28.529v-24.723c0-1.165 1.077-2.112 2.406-2.112h9.044c-0.245-1.068-1.386-1.81-2.641-1.68l-14.972 1.564c-1.319 0.139-2.263 1.189-2.105 2.347l3.276 24.154c0.157 1.158 1.355 1.984 2.674 1.847l2.684-0.28c-0.231-0.325-0.367-0.707-0.367-1.118z"></path>
<path d="M28.501 3.054h-15.292c-1.329 0-2.406 0.945-2.406 2.112v24.723c0 1.166 1.077 2.112 2.406 2.112h15.292c1.329 0 2.407-0.945 2.407-2.112v-24.723c0-1.166-1.077-2.112-2.407-2.112z"></path>
</svg>
