<?xml version="1.0" encoding="UTF-8"?>
<svg id="Camada_1" data-name="Camada 1" xmlns="http://www.w3.org/2000/svg" viewBox="0 0 750 600">
  <defs>
    <style>
      .cls-1 {
        fill: #52006f;
      }
    </style>
  </defs>
  <path class="cls-1" d="M400,250v50h50v-50h-50ZM425,281.25c-3.45,0-6.25-2.8-6.25-6.25s2.8-6.25,6.25-6.25,6.25,2.8,6.25,6.25-2.8,6.25-6.25,6.25Z"/>
  <path class="cls-1" d="M0,50v300h300V50H0ZM60.94,326.56c-20.71,0-37.5-16.79-37.5-37.5s16.79-37.5,37.5-37.5,37.5,16.79,37.5,37.5-16.79,37.5-37.5,37.5ZM60.94,237.5c-20.71,0-37.5-16.79-37.5-37.5s16.79-37.5,37.5-37.5,37.5,16.79,37.5,37.5-16.79,37.5-37.5,37.5ZM60.94,148.44c-20.71,0-37.5-16.79-37.5-37.5s16.79-37.5,37.5-37.5,37.5,16.79,37.5,37.5-16.79,37.5-37.5,37.5ZM239.06,326.56c-20.71,0-37.5-16.79-37.5-37.5s16.79-37.5,37.5-37.5,37.5,16.79,37.5,37.5-16.79,37.5-37.5,37.5ZM239.06,237.5c-20.71,0-37.5-16.79-37.5-37.5s16.79-37.5,37.5-37.5,37.5,16.79,37.5,37.5-16.79,37.5-37.5,37.5ZM239.06,148.44c-20.71,0-37.5-16.79-37.5-37.5s16.79-37.5,37.5-37.5,37.5,16.79,37.5,37.5-16.79,37.5-37.5,37.5Z"/>
  <path class="cls-1" d="M550,150v200h200v-200h-200ZM590.62,334.37c-13.81,0-25-11.19-25-25s11.19-25,25-25,25,11.19,25,25-11.19,25-25,25ZM590.62,215.62c-13.81,0-25-11.19-25-25s11.19-25,25-25,25,11.19,25,25-11.19,25-25,25ZM709.38,334.37c-13.81,0-25-11.19-25-25s11.19-25,25-25,25,11.19,25,25-11.19,25-25,25ZM709.38,215.62c-13.81,0-25-11.19-25-25s11.19-25,25-25,25,11.19,25,25-11.19,25-25,25Z"/>
  <path class="cls-1" d="M300,350v250h250v-250h-250ZM350.78,580.47c-17.26,0-31.25-13.99-31.25-31.25s13.99-31.25,31.25-31.25,31.25,13.99,31.25,31.25-13.99,31.25-31.25,31.25ZM350.78,432.03c-17.26,0-31.25-13.99-31.25-31.25s13.99-31.25,31.25-31.25,31.25,13.99,31.25,31.25-13.99,31.25-31.25,31.25ZM425,506.25c-17.26,0-31.25-13.99-31.25-31.25s13.99-31.25,31.25-31.25,31.25,13.99,31.25,31.25-13.99,31.25-31.25,31.25ZM499.22,580.47c-17.26,0-31.25-13.99-31.25-31.25s13.99-31.25,31.25-31.25,31.25,13.99,31.25,31.25-13.99,31.25-31.25,31.25ZM499.22,432.03c-17.26,0-31.25-13.99-31.25-31.25s13.99-31.25,31.25-31.25,31.25,13.99,31.25,31.25-13.99,31.25-31.25,31.25Z"/>
  <path class="cls-1" d="M400,0v150h150V0h-150ZM430.47,138.28c-10.36,0-18.75-8.39-18.75-18.75s8.39-18.75,18.75-18.75,18.75,8.39,18.75,18.75-8.39,18.75-18.75,18.75ZM475,93.75c-10.36,0-18.75-8.39-18.75-18.75s8.39-18.75,18.75-18.75,18.75,8.39,18.75,18.75-8.39,18.75-18.75,18.75ZM519.53,49.22c-10.36,0-18.75-8.39-18.75-18.75s8.39-18.75,18.75-18.75,18.75,8.39,18.75,18.75-8.39,18.75-18.75,18.75Z"/>
  <path class="cls-1" d="M300,150v100h100v-100h-100ZM320.31,242.19c-6.9,0-12.5-5.6-12.5-12.5s5.6-12.5,12.5-12.5,12.5,5.6,12.5,12.5-5.6,12.5-12.5,12.5ZM379.69,182.81c-6.9,0-12.5-5.6-12.5-12.5s5.6-12.5,12.5-12.5,12.5,5.6,12.5,12.5-5.6,12.5-12.5,12.5Z"/>
</svg>