<?xml version="1.0" encoding="utf-8"?>
<!-- Generator: Adobe Illustrator 21.1.0, SVG Export Plug-In . SVG Version: 6.00 Build 0)  -->
<svg version="1.1" id="Camada_1" xmlns="http://www.w3.org/2000/svg" xmlns:xlink="http://www.w3.org/1999/xlink" x="0px" y="0px"
	 viewBox="0 0 256 256" style="enable-background:new 0 0 256 256;" xml:space="preserve">
<g>
	<path d="M118,44.8c4.6-5.8,6.6-13,5.8-20.3c-1.6-13.9-13.3-24.4-27.3-24.4C80,0.1,67.2,14.4,69.1,30.8
		C71.9,55.3,102.9,63.8,118,44.8z"/>
	<path d="M241.8,232.8c-1.2-2.5-76.4-144.6-84.7-159.1c18.3-4.8,34.1,1.8,46.6,19.3c13.3,18.6,34.1,1.3,20.5-17.6
		c-22.6-31.7-67.4-45.9-102.4-25.1c-15.4,9.1-27.8,16.1-45,16.1c-36,0-35.6-27.7-52.4-27.7c-10.1,0-17.2,11.7-8.1,24.4
		c24.1,33.7,56.6,43.9,88.4,34.9c9.4,16.1,18.5,32.8,27.9,51l-37.7,26c-12.2,10.7-2.5,25.6,5.3,30.3c9.4,5.7,21.5,11.6,33.2,17.4
		c24.8,12.2,26.1,13.7,32.7,14.2c13.6,1,22.6-19.3,6.6-28.9c-10-6-23.8-15.1-34.2-21.5c9.2-5.9,30.9-14.9,31.9-15.5
		c13.7,23.2,23.4,40.1,30.6,52.4c0,0-0.1,0-0.1,0c0,0.1,0.1,0.1,0.1,0.2c14.1,23.8,14.3,25.8,19.6,29.8
		C231.3,261.7,250,249.6,241.8,232.8z"/>
</g>
</svg>
