<?xml version="1.0" encoding="utf-8"?>
<!-- Generator: Adobe Illustrator 21.1.0, SVG Export Plug-In . SVG Version: 6.00 Build 0)  -->
<svg version="1.1" id="Camada_1" xmlns="http://www.w3.org/2000/svg" xmlns:xlink="http://www.w3.org/1999/xlink" x="0px" y="0px"
	 viewBox="0 0 256 256" style="enable-background:new 0 0 256 256;" xml:space="preserve">
<title>musculous-arm-silhouette</title>
<path d="M196,19.1c-8.4-9.8-55.7-33.4-81.4-6.8s1.6,45.4,11.4,49.9s37.9,11.4,48.1-6.3c2.7,6.9,0.9,64.6-15.2,79.3
	c-8.1-7.7-19.9-12.6-32.9-12.6c-10.1-0.1-19.9,3-28.2,8.7c-10.1-16.2-29.3-27.2-51.3-27.2c-10.1,0-20,2.3-29,6.9v5.7h0V256
	c0,0,40.7,2.1,43.9-44.8l0,0c9.9,14.3,41.4,25.3,60.9,24.6c30.5-1,71.1-2.3,105.5-35.2c3.2-3.1,5.7-6.9,7.4-11l0,0
	C251.1,156.6,204.4,28.9,196,19.1z"/>
</svg>
