<?xml version="1.0" encoding="utf-8"?>
<!-- Generator: Adobe Illustrator 21.1.0, SVG Export Plug-In . SVG Version: 6.00 Build 0)  -->
<svg version="1.1" id="Camada_1" xmlns="http://www.w3.org/2000/svg" xmlns:xlink="http://www.w3.org/1999/xlink" x="0px" y="0px"
	 viewBox="0 0 256 256" style="enable-background:new 0 0 256 256;" xml:space="preserve">
<title>brain-and-head</title>
<path d="M227.3,99.5c-2.8-32.1-21.8-61.8-48.4-79.5c-14.6-9.7-31.5-15.7-48.9-18C82.1-4.2,31.7,16.9,13.7,63.9
	c-15.5,40.4-0.2,80.5,27.6,111.1c10,11,11.4,31.8,11.4,45.8v28.4c0,4.4,3.5,7.9,7.9,7.9c0,0,0,0,0,0h102.6c4.2,0,7.6-3.2,7.9-7.4
	c0.4-5.6,1-10.5,1-10.5c2.1-9.2,10-16.6,26.7-13.9c17.5,2.8,28.5-2.4,29.5-14.1c0.3-3.8,0.5-36.7,0.5-36.7c0.8-0.5,6.3-1.6,14.3-3.4
	c4.3-1,7.1-5.3,6.1-9.7c-0.3-1.5-1.1-2.9-2.2-4c-18.2-18-20.6-26.4-21.1-28.2C223.6,120.4,228.1,108.9,227.3,99.5z M193.4,88.8
	c-2.5,3.2-5.4,3.8-6.9,3.9c-0.4,0-0.8,0.4-0.7,0.8c0,0.1,0,0.1,0,0.2c0.8,2.8,1.6,10.3-12,13.3c-12.7,2.8-20.4,12.7-25.5,17.7
	c-3.9,3.9-9.1,5.6-14.3,6.8c-5.3,1.2-10.6,2.2-14.8,6c-4.4,4-10.7,25.9-11.7,29.7c-0.1,0.3-0.4,0.6-0.7,0.6h-6.6
	c-0.4,0-0.7-0.3-0.8-0.6l-3.2-15c-0.1-0.6-30.8,1.9-33.2-11.8c-0.1-0.4-0.5-0.7-0.9-0.7c0,0-0.1,0-0.1,0c-3,1.1-12.4,3.7-17.5-4.2
	c-2.5-3.7-3.3-8.3-2.2-12.7c0.1-0.4-0.1-0.8-0.4-0.9c-2.6-1.1-12-6.4-10.7-23.8c1-14,10.5-20.2,9.2-22.3c-3.8-6.2-0.5-16.5,7.3-18.8
	c0.3-0.1,0.5-0.4,0.6-0.7l0.3-3.6c1.1-12.9,18-21,29.5-15.7c0.4,0.2,0.9,0,1.1-0.4c0,0,0-0.1,0-0.1c1.4-4.6,4.3-5.8,5.1-6.2
	c3.6-2,8.2-1.8,11.9-0.2c0.3,0.1,0.6,0,0.8-0.2c1.1-1.1,5.4-4.7,12.5-4.7c7.3,0,11,3.5,12.3,4.5c0.2,0.2,0.6,0.2,0.8,0.1
	c1.6-0.8,7.6-3.5,13.6-1.5c4.5,1.6,7.1,5.7,7.9,7.2c0.2,0.3,0.5,0.5,0.9,0.4c2.2-0.5,9.6-1.9,15.8,0.9c6.6,3,8.7,7.3,9.2,8.7
	c0.1,0.3,0.4,0.5,0.7,0.5c1.4,0.1,5.4,0.4,7.8,2.5c4.3,3.6,3.9,6.5,3.4,7.7c-0.1,0.4,0,0.8,0.4,1c4.7,2.4,8.5,6.2,10.9,10.9
	C197.9,77.5,196,85.5,193.4,88.8L193.4,88.8z"/>
</svg>
