<?xml version="1.0" encoding="utf-8"?>
<!-- Generator: Adobe Illustrator 21.1.0, SVG Export Plug-In . SVG Version: 6.00 Build 0)  -->
<svg version="1.1" id="Camada_1" xmlns="http://www.w3.org/2000/svg" xmlns:xlink="http://www.w3.org/1999/xlink" x="0px" y="0px"
	 viewBox="0 0 256 256" style="enable-background:new 0 0 256 256;" xml:space="preserve">
<title>good-mood-emoticon</title>
<path d="M128,0C57.6,0,0,57.6,0,128s57.6,128,128,128s128-57.6,128-128S198.4,0,128,0z M172.8,76.8c10.2,0,19.2,9,19.2,19.2
	s-9,19.2-19.2,19.2c-10.2,0-19.2-9-19.2-19.2S162.6,76.8,172.8,76.8z M83.2,76.8c10.2,0,19.2,9,19.2,19.2s-9,19.2-19.2,19.2
	S64,106.2,64,96S73,76.8,83.2,76.8z M128,204.8c-33.3,0-61.4-21.8-71.7-51.2h143.4C189.4,183,161.3,204.8,128,204.8z"/>
</svg>
