<?xml version="1.0" encoding="utf-8"?>
<!-- Generator: Adobe Illustrator 21.1.0, SVG Export Plug-In . SVG Version: 6.00 Build 0)  -->
<svg version="1.1" id="Camada_1" xmlns="http://www.w3.org/2000/svg" xmlns:xlink="http://www.w3.org/1999/xlink" x="0px" y="0px"
	 viewBox="0 0 256 256" style="enable-background:new 0 0 256 256;" xml:space="preserve">
<g>
	<path d="M128,0C57.4,0,0,57.4,0,128c0,70.6,57.4,128,128,128c70.6,0,128-57.4,128-128C256,57.4,198.6,0,128,0z M128,185
		c-59.8,0-92.1-55.8-92.1-55.8S68.2,73.4,128,73.4c59.8,0,92.1,55.8,92.1,55.8S187.8,185,128,185z"/>
	<path d="M128,81.6c-26.2,0-47.6,21.4-47.6,47.6s21.4,47.6,47.6,47.6s47.6-21.4,47.6-47.6C175.6,103,154.2,81.6,128,81.6z
		 M128,161.4c-17.7,0-32.1-14.4-32.1-32.1c0-17.7,14.4-32.1,32.1-32.1s32.1,14.4,32.1,32.1C160.1,146.9,145.7,161.4,128,161.4z"/>
	<path d="M139.8,131.2c-6.3,0-11.5-5.1-11.5-11.5c0-5.7,4.2-10.4,9.6-11.3c-3-1.5-6.4-2.4-10-2.4c-12.8,0-23.2,10.4-23.2,23.2
		c0,12.8,10.4,23.2,23.2,23.2c12.8,0,23.2-10.4,23.2-23.2c0-1.8-0.3-3.6-0.7-5.3C148.8,128.1,144.7,131.2,139.8,131.2z"/>
</g>
</svg>
