<?xml version="1.0" encoding="utf-8"?>
<!-- Generator: Adobe Illustrator 21.1.0, SVG Export Plug-In . SVG Version: 6.00 Build 0)  -->
<svg version="1.1" id="Camada_1" xmlns="http://www.w3.org/2000/svg" xmlns:xlink="http://www.w3.org/1999/xlink" x="0px" y="0px"
	 viewBox="0 0 256 256" style="enable-background:new 0 0 256 256;" xml:space="preserve">
<path d="M231.5,3.2C229.4,1.1,226.9,0,224,0H32c-2.9,0-5.4,1.1-7.5,3.2c-2.1,2.1-3.2,4.6-3.2,7.5v128c0,9.6,1.9,19,5.6,28.4
	c3.7,9.4,8.3,17.7,13.8,25c5.5,7.3,12.1,14.4,19.7,21.3c7.6,6.9,14.6,12.6,21.1,17.2c6.4,4.6,13.2,8.9,20.2,12.9
	c7,4.1,12,6.8,14.9,8.3c2.9,1.4,5.3,2.6,7.1,3.3c1.3,0.7,2.8,1,4.3,1c1.6,0,3-0.3,4.3-1c1.8-0.8,4.1-1.9,7.1-3.3
	c2.9-1.4,7.9-4.2,14.9-8.3c7-4.1,13.7-8.4,20.2-12.9c6.4-4.6,13.5-10.3,21.1-17.2c7.6-6.9,14.2-14,19.7-21.3
	c5.5-7.3,10.1-15.6,13.8-25c3.7-9.4,5.6-18.9,5.6-28.4v-128C234.7,7.8,233.6,5.3,231.5,3.2z M202.7,138.7c0,19.6-13.1,39.6-39.2,60
	c-10.4,8.2-22.3,15.8-35.5,22.8V32h74.7V138.7z"/>
</svg>
