<?xml version="1.0" encoding="utf-8"?>
<!-- Generator: Adobe Illustrator 21.1.0, SVG Export Plug-In . SVG Version: 6.00 Build 0)  -->
<svg version="1.1" id="Camada_1" xmlns="http://www.w3.org/2000/svg" xmlns:xlink="http://www.w3.org/1999/xlink" x="0px" y="0px"
	 viewBox="0 0 256 256" style="enable-background:new 0 0 256 256;" xml:space="preserve">
<g>
	<path d="M216.1,210.7c6.9,31.4-27.3,38.3-42.3,34.2c-15-4.1-45.7-4.8-45.7-4.8s-30.8,0.7-45.8,4.8c-15,4.1-49.2-2.7-42.4-34.2
		s36.9-30.1,45.1-72.5c8.2-42.4,43.1-39.7,43.1-39.7s34.8-2.7,43,39.7C179.3,180.6,209.3,179.2,216.1,210.7z M159.6,95.8
		c18.5,5.3,39-9.3,45.7-32.6c6.7-23.3-2.8-46.6-21.3-51.9c-18.5-5.3-39,9.3-45.7,32.6C131.6,67.2,141.1,90.4,159.6,95.8z
		 M236.3,87.3c-17.8-7.3-39.7,5.1-48.9,27.6c-9.2,22.5-2.2,46.7,15.6,53.9c17.8,7.2,39.7-5.1,48.9-27.6
		C261.1,118.7,254.1,94.5,236.3,87.3z M96.4,95.8c18.5-5.3,28-28.6,21.3-51.9c-6.7-23.3-27.2-38-45.7-32.6
		c-18.5,5.3-28,28.6-21.3,51.9C57.4,86.5,77.8,101.1,96.4,95.8z M52.9,168.8c17.8-7.3,24.8-31.4,15.6-53.9S37.5,80,19.7,87.3
		C1.9,94.5-5.1,118.7,4,141.2C13.2,163.7,35.1,176,52.9,168.8z"/>
</g>
</svg>
