<?xml version="1.0" encoding="utf-8"?>
<!-- Generator: Adobe Illustrator 23.0.0, SVG Export Plug-In . SVG Version: 6.00 Build 0)  -->
<svg version="1.1" id="Layer_1" xmlns="http://www.w3.org/2000/svg" xmlns:xlink="http://www.w3.org/1999/xlink" x="0px" y="0px"
	 viewBox="0 0 256 256" style="enable-background:new 0 0 256 256;" xml:space="preserve">
<g>
	<g>
		<path d="M168,48c-21.6,0-41.3,7.8-56.6,20.6c13-29.5,41.6-50.5,75.4-52.5C172.5,6,154.9,0,136,0C87.4,0,48,39.4,48,88
			c0,21.6,7.8,41.3,20.6,56.6c-29.5-13-50.5-41.6-52.5-75.4C6,83.5,0,101.1,0,120c0,48.6,39.4,88,88,88c21.6,0,41.3-7.8,56.6-20.6
			c-13,29.5-41.6,50.5-75.4,52.5C83.5,250,101.1,256,120,256c48.6,0,88-39.4,88-88c0-21.6-7.8-41.3-20.6-56.6
			c29.5,13,50.5,41.6,52.5,75.4C250,172.5,256,154.9,256,136C256,87.4,216.6,48,168,48z M128,156c-15.5,0-28-12.5-28-28
			s12.5-28,28-28s28,12.5,28,28S143.5,156,128,156z"/>
	</g>
</g>
</svg>
