<?xml version="1.0" encoding="utf-8"?>
<!-- Generator: Adobe Illustrator 23.0.2, SVG Export Plug-In . SVG Version: 6.00 Build 0)  -->
<svg version="1.1" id="Capa_1" xmlns="http://www.w3.org/2000/svg" xmlns:xlink="http://www.w3.org/1999/xlink" x="0px" y="0px"
	 viewBox="0 0 256 256" style="enable-background:new 0 0 256 256;" xml:space="preserve">
<path d="M229,117.5c-1.9-3.1-5-4.9-8.9-4.9c-7.2,0-15.9,2.9-22.7,7.5c-6.2,4.2-15.3,12.1-22.9,25.4c-1.4,2.5-3.8,4.2-6.3,4.6
	c0-0.6,0-1.2,0-1.9c0-1.3,0-2.9-0.1-4.7V47.7c0-9.6-7.8-17.3-17.3-17.3s-17.3,7.8-17.3,17.3v67.2c0,1.2-1,2.2-2.2,2.2
	c-1.2,0-2.2-1-2.2-2.2V17.3c0-9.6-7.8-17.3-17.3-17.3S94.5,7.8,94.5,17.3v97.5c0,1.2-1,2.2-2.2,2.2c-1.2,0-2.2-1-2.2-2.2v-78
	c0-8.4-6.8-15.2-15.2-15.2s-15.2,6.8-15.2,15.2v86.7c0,1.2-1,2.2-2.2,2.2c-1.2,0-2.2-1-2.2-2.2V69.3c0-8.4-6.8-15.2-15.2-15.2
	c-8.4,0-15.2,6.8-15.2,15.2l0,117.9c4.2,60.6,41.4,68.8,77.2,68.8c29.7,0,56.3-14.7,69.5-38.2c1.7-2.7,6.3-9.9,11.7-18.4
	C197,178,208.3,160.1,210,157c3.7-7.1,7.9-12.6,12.1-16c3.8-3.1,6.1-7,7.9-10.4C231,128.7,231.8,122.2,229,117.5z"/>
</svg>
