<?xml version="1.0" encoding="utf-8"?>
<!-- Generator: Adobe Illustrator 23.0.2, SVG Export Plug-In . SVG Version: 6.00 Build 0)  -->
<svg version="1.1" id="Capa_1" xmlns="http://www.w3.org/2000/svg" xmlns:xlink="http://www.w3.org/1999/xlink" x="0px" y="0px"
	 viewBox="0 0 256 256" style="enable-background:new 0 0 256 256;" xml:space="preserve">
<path id="XMLID_175_" d="M211.1,223.2c16.6-16.6,26.7-38.1,26.7-61.7c0-20.5-7.7-39.4-20.5-54.9c1.1-3.3,1.6-6.7,1.6-10.2
	c0-19.4-17-35.7-43.4-44.5l14.9-34.4c2.8-6.4-0.2-13.8-6.6-16.6c-6.4-2.8-13.8,0.2-16.5,6.6l-16.7,38.7c-7.2-1-14.7-1.5-22.5-1.5
	c-51.8,0-90.9,22.2-90.9,51.8c0,3.5,0.6,6.9,1.6,10.2c-12.9,15.5-20.5,34.4-20.5,54.9c0,23.6,10.1,45.1,26.7,61.7l-9.4,12.7
	c-4.1,5.6-2.9,13.5,2.6,17.6c2.2,1.7,4.9,2.5,7.5,2.5c3.9,0,7.7-1.8,10.1-5.1l9-12.1C82.7,249.6,104.4,256,128,256
	c23.6,0,45.3-6.4,63.2-17.3l9,12.1c2.5,3.3,6.3,5.1,10.1,5.1c2.6,0,5.2-0.8,7.5-2.5c5.6-4.1,6.8-12,2.6-17.6L211.1,223.2z
	 M128,123.3c-41,0-65.7-15.4-65.7-26.8C62.3,85.7,87.9,70,128,70c4.2,0,8.2,0.2,12.1,0.5l-6.4,14.7c-1.7,3.9-1.3,8.4,1,11.9
	c2.3,3.5,6.3,5.7,10.5,5.7c5,0,9.6-3,11.6-7.6l8.6-20c17.9,5.5,28.3,14.4,28.3,21.3C193.8,108.6,167.8,123.3,128,123.3z"/>
</svg>
