<?xml version="1.0" encoding="utf-8"?>
<!-- Generator: Adobe Illustrator 23.0.2, SVG Export Plug-In . SVG Version: 6.00 Build 0)  -->
<svg version="1.1" id="Camada_1" xmlns="http://www.w3.org/2000/svg" xmlns:xlink="http://www.w3.org/1999/xlink" x="0px" y="0px"
	 viewBox="0 0 256 256" style="enable-background:new 0 0 256 256;" xml:space="preserve">
<path d="M94.2,122.6c6.3-2.3,13.2-3.5,20.3-3.5c21.8,0,41,11.7,51.5,29.2l90-48.9l-27.9-67.4L75.4,77.1L94.2,122.6z"/>
<path d="M80.8,129.4L61.1,82c-11.2,5.3-20.4,14.3-25.8,25.7c-5.6,11.8-6.8,25.2-3.4,37.7c-3.1,0.9-6.4,0.6-9.5-0.9
	c-4.7-2.3-7.5-6.8-7.5-12v-32H0v32c0,10.9,6.1,20.7,15.9,25.4c4,1.9,8.2,2.9,12.5,2.9c3.3,0,6.5-0.6,9.6-1.7
	c4.2,6.9,9.9,12.8,16.6,17.2C55.4,156.8,65.6,139.7,80.8,129.4z"/>
<path d="M159.5,179.1c0-24.8-20.2-45-45-45c-24.8,0-45,20.2-45,45c0,24.8,20.2,45,45,45C139.3,224.1,159.5,203.9,159.5,179.1z
	 M114.5,201.6c-12.4,0-22.5-10.1-22.5-22.5c0-12.4,10.1-22.5,22.5-22.5c12.4,0,22.5,10.1,22.5,22.5
	C137,191.5,126.9,201.6,114.5,201.6z"/>
<path d="M114.5,171.5c-4.1,0-7.5,3.4-7.5,7.5c0,4.1,3.4,7.5,7.5,7.5c4.1,0,7.5-3.4,7.5-7.5C122,174.9,118.6,171.5,114.5,171.5z"/>
</svg>
