<?xml version="1.0" encoding="utf-8"?>
<!-- Generator: Adobe Illustrator 23.0.2, SVG Export Plug-In . SVG Version: 6.00 Build 0)  -->
<svg version="1.1" id="Capa_1" xmlns="http://www.w3.org/2000/svg" xmlns:xlink="http://www.w3.org/1999/xlink" x="0px" y="0px"
	 viewBox="0 0 256 256" style="enable-background:new 0 0 256 256;" xml:space="preserve">
<g>
	<path d="M16.8,56c9.3,21.7,25,43.1,47,52.3c2.5,1,5.4,1.8,8.3,2.5C78,102.1,84.7,95,92.6,89.2c6.8-5,13.9-8.9,21.2-11.9
		c-2.1-1.5-4.3-2.8-6.6-4c-9.2-4.8-19.1-9-28.7-13.5c9.1,2.5,19.5,3.4,28.2,6.5c5.4,2,10.4,4.7,15.1,8c13.9-4.7,28.4-7,42.9-8.7
		c-11.7-19.5-36.8-35.2-55.7-42.3c-19.7-7.4-42.1-8.3-64-10.6C31.4,11.3,16.8,6.3,6.1,0.4C3.6-0.9,1.1,1.3,1.9,4
		C7.1,20.8,9.8,39.8,16.8,56z"/>
	<path d="M248.7,53.4c-24.7,13.4-53.1,15.1-80.9,18.3c-13.6,1.6-27,3.5-39.8,7.4c-2.8,0.8-5.5,1.8-8.3,2.8
		c-8.1,3.1-15.9,7.1-23.2,12.6c-6.9,5.1-12.6,11.1-17.3,17.7c-7.6,10.6-12.9,22.7-17.2,35.4C54,170.5,50.3,194.9,51,219.1
		c0.3,9.8,0.4,20.1,2.9,29.7c0.5,2.1,1.1,4.8,2.7,6.4c2.1,2.1,6-0.1,5.1-3.1c-6.2-21.2-2.4-46,6.3-66.3c9.9-23.3,29-37.2,52.3-45.6
		c6.2-2.2,12.5-4.2,19-6.1c0.1-0.1,0.3-0.1,0.4-0.1c1.3,0,1.8,1.9,0.5,2.5c-7.6,3.4-15.1,6.9-22.3,10.6
		c-35.1,18.3-50.4,60.9-37.3,60.9c1.1,0,2.3-0.3,3.8-0.9c20.3-8.4,44.4-8.5,66.7-12.6c7.8-1.4,15.5-3.4,22.7-6.4
		c28.5-11.9,48.8-35.1,60.9-63c9-20.8,12.5-45.5,19.4-67.1c0.9-2.8-1.1-5.2-3.5-5.2C250,52.9,249.3,53.1,248.7,53.4z"/>
</g>
</svg>
