<?xml version="1.0" encoding="utf-8"?>
<!-- Generator: Adobe Illustrator 23.0.2, SVG Export Plug-In . SVG Version: 6.00 Build 0)  -->
<svg version="1.1" id="Layer_1" xmlns="http://www.w3.org/2000/svg" xmlns:xlink="http://www.w3.org/1999/xlink" x="0px" y="0px"
	 viewBox="0 0 256 256" style="enable-background:new 0 0 256 256;" xml:space="preserve">
<g>
	<g>
		<path d="M178,174.7c-1.2,0-2.4,0.1-3.6,0.2l-13.9-24.1l-21.7,37.5l4,6.9c-3.4,6-5.4,12.9-5.4,20.2c0,22.4,18.2,40.6,40.6,40.6
			s40.6-18.2,40.6-40.6S200.4,174.7,178,174.7z M178,237.2c-12.1,0-21.9-9.8-21.9-21.9c0-12.1,9.8-21.9,21.9-21.9
			s21.9,9.8,21.9,21.9C199.9,227.4,190.1,237.2,178,237.2z"/>
	</g>
</g>
<g>
	<g>
		<path d="M182.6,0l-101,174.9c-1.2-0.1-2.4-0.2-3.6-0.2c-22.4,0-40.6,18.2-40.6,40.6S55.6,256,78,256s40.6-18.2,40.6-40.6
			c0-7.4-2-14.3-5.4-20.2l83.1-143.9C206.6,33.3,200.5,10.4,182.6,0z M78,237.2c-12.1,0-21.9-9.8-21.9-21.9
			c0-12.1,9.8-21.9,21.9-21.9s21.9,9.8,21.9,21.9C99.9,227.4,90,237.2,78,237.2z"/>
	</g>
</g>
<g>
	<g>
		<path d="M73.4,0C55.5,10.4,49.4,33.3,59.7,51.2l35.8,62l21.7-37.5L73.4,0z"/>
	</g>
</g>
</svg>
