<?xml version="1.0" encoding="utf-8"?>
<!-- Generator: Adobe Illustrator 23.0.2, SVG Export Plug-In . SVG Version: 6.00 Build 0)  -->
<svg version="1.1" id="Layer_1" xmlns="http://www.w3.org/2000/svg" xmlns:xlink="http://www.w3.org/1999/xlink" x="0px" y="0px"
	 viewBox="0 0 256 256" style="enable-background:new 0 0 256 256;" xml:space="preserve">
<g>
	<g>
		<g>
			<path d="M187.7,185.6h-15.3c-9.3-8.9-14.6-21.2-14.6-34.1c0-5.9,1.2-11.7,3.3-17.1H94.9c2.1,5.4,3.3,11.2,3.3,17.1
				c0,12.9-5.3,25.2-14.6,34.1H68.3c-7.1,0-12.8,5.7-12.8,12.8s5.7,12.8,12.8,12.8h119.5c7.1,0,12.8-5.7,12.8-12.8
				S194.8,185.6,187.7,185.6z"/>
			<path d="M252.5,70.4c2.2-6.7,3.5-13.9,3.5-21.3c0-2.4-1.9-4.3-4.3-4.3H76.8c-2.4,0-4.3,1.9-4.3,4.3v8.5H4.3
				c-2.4,0-4.3,1.9-4.3,4.3c0,30.6,24.9,55.5,55.5,55.5h21.3h6.7c2.7,2.6,5.1,5.4,7,8.5h74.8c2-3.1,4.4-5.9,7-8.5h15.3
				c26.9,0,50.2-15.7,61.3-38.4h-168v-8.5H252.5z M72.5,74.7v34.1H55.5C31,108.8,10.9,90,8.7,66.1h63.8V74.7z"/>
		</g>
	</g>
</g>
</svg>
