<?xml version="1.0" encoding="utf-8"?>
<!-- Generator: Adobe Illustrator 21.1.0, SVG Export Plug-In . SVG Version: 6.00 Build 0)  -->
<svg version="1.1" id="Capa_1" xmlns="http://www.w3.org/2000/svg" xmlns:xlink="http://www.w3.org/1999/xlink" x="0px" y="0px"
	 viewBox="0 0 256 256" style="enable-background:new 0 0 256 256;" xml:space="preserve">
<g>
	<g>
		<g>
			<path d="M222.1,97.2l-1.2-0.4l-4.8-11.4l0.5-1.2c14.4-32.7,13.4-33.7,11-36l-19.2-18.7c-0.8-0.8-2.2-1.3-3.4-1.3
				c-1.1,0-4.4,0-32.7,12.9l-1.1,0.5l-11.7-4.7l-0.5-1.2C145.7,2.6,144.3,2.6,141,2.6h-27.1c-3.3,0-4.8,0-17.2,33.1l-0.5,1.2
				l-11.6,4.7l-1.1-0.5C64.2,33.1,53,29,50.1,29c-1.2,0-2.6,0.5-3.4,1.3L27.5,49.1C25,51.5,24,52.5,39.2,84.5l0.6,1.2L35,97
				l-1.2,0.5C0,110.6,0,111.8,0,115.2v26.6c0,3.4,0,4.8,33.9,17l1.2,0.4l4.8,11.3l-0.5,1.2c-14.4,32.7-13.5,33.6-11,36l19.2,18.8
				c0.8,0.8,2.2,1.3,3.4,1.3c1.1,0,4.3,0,32.7-12.8l1.1-0.5l11.7,4.7l0.5,1.2c13.4,33,14.7,33,18.1,33h27.1c3.4,0,4.8,0,17.2-33.1
				l0.5-1.2l11.7-4.7l1.1,0.5c19.2,8.1,30.4,12.2,33.3,12.2c1.2,0,2.6-0.5,3.4-1.3l19.3-18.8c2.4-2.4,3.4-3.4-11.8-35.4l-0.6-1.2
				L221,159l1.1-0.4c33.9-13.1,33.9-14.4,33.9-17.8v-26.6C256,110.7,256,109.3,222.1,97.2z M128,171.1c-24.3,0-44-19.4-44-43.1
				c0-23.8,19.7-43.1,44-43.1c24.2,0,44,19.3,44,43.1C172,151.8,152.2,171.1,128,171.1z"/>
		</g>
	</g>
</g>
</svg>
