<?xml version="1.0" encoding="utf-8"?>
<!-- Generator: Adobe Illustrator 23.0.2, SVG Export Plug-In . SVG Version: 6.00 Build 0)  -->
<svg version="1.1" id="Capa_1" xmlns="http://www.w3.org/2000/svg" xmlns:xlink="http://www.w3.org/1999/xlink" x="0px" y="0px"
	 viewBox="0 0 256 256" style="enable-background:new 0 0 256 256;" xml:space="preserve">
<g>
	<g>
		<path d="M224.5,31.5C204.2,11.2,177.2,0,148.5,0c-28.7,0-55.7,11.2-76,31.5c-16.1,16.1-26.4,36.4-30,58.4
			c-0.7-20.3-8.3-31.8-14.7-38C20.3,44.6,10.2,40.5,0,40.5v15c3,0,10.7,0.7,17.3,7.1c6.7,6.5,10.2,16.7,10.2,30.4
			c0,20.4-5.3,34.6-10.4,48.3C12.2,154.7,7,168.6,7,187.3C7,225,37.3,255.8,74.6,256c0.1,0,0.3,0,0.4,0c14.7,0,28.6-4.6,40.4-13.3
			c9.7-7.2,17.4-17.1,22.1-28.2c3.6,0.4,7.3,0.6,11,0.6c28.7,0,55.7-11.2,76-31.5c20.3-20.3,31.5-47.3,31.5-76
			S244.8,51.8,224.5,31.5z M227.5,59.5c-23.2-6-43.2-20.9-55.6-41.5C195.4,24.1,215.2,39.3,227.5,59.5z M148.5,15
			c1.7,0,3.3,0,4.9,0.1c7.4,16,18.7,30.1,32.9,40.8c14.5,10.9,31.4,17.9,49.3,20.5c1.8,5,3.2,10.2,4.1,15.6
			c-45.7-4.2-85.3-33.7-102.4-76.3C141,15.2,144.7,15,148.5,15z M74.2,52.4c2.1,4.6,4.5,9.1,6.9,13.5c-10.4,14.4-18.9,30.3-25,47
			c-0.1-1.8-0.2-3.6-0.2-5.4C56,86.9,62.8,67.8,74.2,52.4z M101.9,187.4c-5.4-3.2-10.5-6.9-15.1-11.1c0.6-26.2,7.9-51.5,21.1-73.8
			c3.5,3.8,7.2,7.5,11,11c-11.3,20.3-17.2,43.2-17.2,66.6C101.8,182.5,101.8,185,101.9,187.4z M72.9,160.7
			c-3.9-5.5-7.2-11.4-9.8-17.7c4.7-22.5,13.9-44.1,26.7-63.2c2.5,3.7,5.1,7.3,7.9,10.8C84.2,111.8,75.8,135.7,72.9,160.7z M75,241
			c-0.1,0-0.2,0-0.3,0c-29-0.2-52.7-24.2-52.7-53.7c0-16.1,4.5-28.1,9.2-40.8c3.7-10,7.8-21,9.9-34.7c1.1,27.1,12.1,52.4,31.4,71.7
			c14,14,31.1,23.6,49.8,28.3C113.4,229.6,95.4,241,75,241z M131.8,180.1c0,6.3,0.5,12.5,1.6,18.6c-5.4-0.9-10.7-2.3-15.8-4.1
			c-0.6-4.8-0.9-9.7-0.9-14.6c0-19.8,4.8-39.3,13.9-56.7c1,0.8,2,1.5,2.9,2.3c3.1,2.3,6.2,4.5,9.4,6.6
			C135.6,147.1,131.8,163.5,131.8,180.1z M164,198.7c-4.9,0.8-10,1.3-15.1,1.3c-1.4-6.5-2.2-13.2-2.2-19.9c0-13.9,3.1-27.5,9-39.9
			c4.4,2.4,8.8,4.7,13.4,6.8c-4.9,10.3-7.4,21.6-7.4,33.1C161.8,186.4,162.5,192.6,164,198.7z M192.6,188.8c-4.5,2.4-9.2,4.5-14,6.2
			c-1.2-4.8-1.8-9.8-1.8-14.9c0-9.5,2.2-18.8,6.3-27.3c4.7,1.8,9.6,3.4,14.4,4.7c-3.7,6.9-5.7,14.6-5.7,22.6
			C191.8,183,192,186,192.6,188.8z M206.8,179.3c0.2-6.5,2.3-12.8,6-18c3.2,0.6,6.5,1.2,9.7,1.7C218,169,212.7,174.5,206.8,179.3z
			 M231.2,148.9c-64.3-7.1-120.7-49.2-146-108.8c3.2-3,6.5-5.7,10.1-8.3c11.3,28.5,30.1,53.2,54.8,71.8
			c25.2,19.1,54.8,30.4,86.1,33.2C234.8,141,233.1,145,231.2,148.9z M108.4,24.2c4.5-2.2,9.2-4,14-5.4c18.9,50,65.3,84.5,118.6,88.4
			c0,0.1,0,0.2,0,0.4c0,5-0.4,9.8-1.2,14.6C181,117.8,129.4,79.3,108.4,24.2z"/>
	</g>
</g>
</svg>
