<?xml version="1.0" encoding="utf-8"?>
<!-- Generator: Adobe Illustrator 21.1.0, SVG Export Plug-In . SVG Version: 6.00 Build 0)  -->
<svg version="1.1" id="Camada_1" xmlns="http://www.w3.org/2000/svg" xmlns:xlink="http://www.w3.org/1999/xlink" x="0px" y="0px"
	 viewBox="0 0 256 256" style="enable-background:new 0 0 256 256;" xml:space="preserve">
<title>item_Acessório</title>
<path d="M148.3,66l31.2-42.7L160.9,0H95.1L76.4,23.2L107.7,66c-51.9,11.2-84.8,62.4-73.6,114.3s62.4,84.8,114.3,73.6
	c51.9-11.2,84.8-62.4,73.6-114.3C213.9,102.7,185.2,73.9,148.3,66L148.3,66z M128,224.3c-35.5,0-64.4-28.8-64.4-64.4
	S92.4,95.5,128,95.5s64.4,28.8,64.4,64.4C192.3,195.4,163.5,224.2,128,224.3L128,224.3z"/>
</svg>
