<?xml version="1.0" encoding="utf-8"?>
<!-- Generator: Adobe Illustrator 22.1.0, SVG Export Plug-In . SVG Version: 6.00 Build 0)  -->
<svg version="1.1" id="Capa_1" xmlns="http://www.w3.org/2000/svg" xmlns:xlink="http://www.w3.org/1999/xlink" x="0px" y="0px"
	 viewBox="0 0 256 256" style="enable-background:new 0 0 256 256;" xml:space="preserve">
<g>
	<g>
		<g>
			<path d="M94.6,169.4c1.6-0.1,3-1,3.7-2.4c0.7-1.4,0.6-3.1-0.3-4.4l-20.4-29.6l-1.2-35.9c-0.1-1.6-1-3-2.4-3.7
				c-1.4-0.7-3.1-0.6-4.4,0.3L40,114.3l-35.9,1.2c-1.6,0.1-3,1-3.7,2.4s-0.6,3.1,0.3,4.4l20.4,29.6l1.2,35.9c0.1,1.6,1,3,2.4,3.7
				c1.4,0.7,3.1,0.6,4.4-0.3l29.6-20.4L94.6,169.4z"/>
			<path d="M161.7,199l-8.6-15.6c-0.8-1.4-2.2-2.2-3.8-2.2c-1.6,0-3,0.9-3.8,2.2l-8.6,15.6l-15.6,8.6c-1.4,0.8-2.2,2.2-2.2,3.8
				c0,1.6,0.9,3,2.2,3.8l15.6,8.6l8.6,15.6c0.8,1.4,2.2,2.2,3.8,2.2c1.6,0,3-0.9,3.8-2.2l8.6-15.6l15.6-8.6c1.4-0.8,2.2-2.2,2.2-3.8
				s-0.9-3-2.2-3.8L161.7,199z"/>
			<path d="M112.6,79.8l29.6,0.1l24.9,16c1.3,0.9,3,0.9,4.4,0.2s2.2-2.2,2.2-3.8l0.1-29.6l16-24.9c0.9-1.3,0.9-3,0.2-4.4
				c-0.7-1.4-2.2-2.2-3.8-2.2l-29.5-0.1l-24.9-16c-1.3-0.9-3-0.9-4.4-0.2c-1.4,0.7-2.2,2.2-2.2,3.8l-0.1,29.6l-16,24.9
				c-0.9,1.3-0.9,3-0.2,4.4C109.6,79,111,79.8,112.6,79.8z"/>
			<path d="M220.4,142.5l13.1-1.6l11.9,5.7c1.4,0.7,3.1,0.5,4.4-0.4c1.3-0.9,1.9-2.5,1.7-4l-1.6-13.1l5.7-11.9
				c0.7-1.4,0.5-3.1-0.4-4.4c-0.9-1.2-2.5-1.9-4-1.7l-13.1,1.6l-11.9-5.7c-1.4-0.7-3.1-0.5-4.4,0.4c-1.3,0.9-1.9,2.5-1.7,4l1.6,13.1
				l-5.7,11.9c-0.7,1.4-0.5,3.1,0.4,4.4C217.3,142,218.9,142.7,220.4,142.5z"/>
		</g>
	</g>
</g>
</svg>
