<?xml version="1.0" encoding="utf-8"?>
<!-- Generator: Adobe Illustrator 27.8.1, SVG Export Plug-In . SVG Version: 6.00 Build 0)  -->
<svg version="1.1" id="Camada_1" xmlns="http://www.w3.org/2000/svg" xmlns:xlink="http://www.w3.org/1999/xlink" x="0px" y="0px"
	 viewBox="0 0 512 512" style="enable-background:new 0 0 512 512;" xml:space="preserve">
<g>
	<path d="M256.5,2.3c4.2,13.2,8.3,26.5,12.5,39.7c15.6,49.4,31.2,98.8,46.6,148.2c1.1,3.5,2.8,5,6.2,6
		c61.3,19.2,122.6,38.5,183.9,57.8c1.4,0.4,2.7,1,5.4,1.9c-4.5,1.5-7.8,2.7-11.2,3.8c-59.4,18.7-118.8,37.4-178.2,55.9
		c-3.2,1-4.8,2.5-5.8,5.7c-19.1,61.2-38.4,122.3-57.7,183.4c-0.5,1.6-1,3.1-2,6.1c-1-2.7-1.6-4.2-2.1-5.8
		c-19.2-61.1-38.5-122.2-57.6-183.4c-1.1-3.4-2.7-5.1-6.1-6.1c-61-19.1-122-38.3-182.9-57.5c-1.6-0.5-3.1-1-6.2-2
		c2.7-1,4.3-1.6,5.9-2.1C68,234.8,129,215.6,190,196.5c3.6-1.1,5.3-2.9,6.4-6.5C215.5,128.9,234.7,67.8,254,6.6
		c0.4-1.4,0.9-2.8,1.4-4.2C255.8,2.4,256.1,2.3,256.5,2.3z M255.9,301.9c24.9,0,45.8-20.5,45.9-45.1c0.2-26.2-19.8-46.5-45.8-46.5
		c-26,0-46,20.2-45.9,46.4C210.2,281.3,231,301.9,255.9,301.9z"/>
	<path d="M306.7,511c-2-10.1-3.8-19.3-5.8-29.3c45.6-9.2,84.7-30.4,117.5-63.2c32.8-32.8,54.2-71.9,63.4-117.7
		c9.9,2,19.3,3.8,29.3,5.8c-9.5,48.5-31.3,90.1-64.5,125.8C408.4,473.2,362.2,499.8,306.7,511z"/>
	<path d="M30.3,211.1c-10-2-19.3-3.8-29.2-5.8C9.4,161.9,28,123.6,56.2,90.2c39.2-46.5,88.4-76.7,149-89.2c2,9.9,3.9,19.4,5.9,29.3
		c-45.8,9.2-84.9,30.5-117.7,63.3C60.8,126.3,39.5,165.3,30.3,211.1z"/>
	<path d="M511,205.3c-5.5,1.1-10.2,2-14.9,3c-4.6,0.9-9.1,1.8-14.4,2.9c-9.2-45.6-30.4-84.7-63.2-117.5
		c-32.8-32.8-71.9-54.2-117.7-63.4c2-9.9,3.8-19.2,5.8-29.2c47.8,9.3,88.9,30.6,124.3,63.1C472.6,102.4,499.6,149,511,205.3z"/>
	<path d="M210.9,482.4c-1.8,9.1-3.7,18.5-5.7,28.5c-51.6-10.2-95.4-34.1-132.3-70.8C35.7,403.1,11.4,359,1,306.7
		c10-2,19.4-3.8,28.5-5.6C54.1,397.5,114.4,457.8,210.9,482.4z"/>
	<path d="M127.4,327.3c14.4,4.5,28,8.8,41.5,13.1c1,0.3,2.2,1.2,2.4,2.1c4.5,13.8,8.8,27.7,13.4,42.1c-26.5,7.3-52.4,14.5-79.4,22
		C112.8,379.8,120,353.9,127.4,327.3z"/>
	<path d="M127.3,184.7c-7.3-26.4-14.5-52.3-22-79.3c26.8,7.4,52.8,14.6,79.3,22c-2.4,7.8-4.7,15.2-7.1,22.5
		c-2.3,7.1-2.9,15.9-7.6,20.6c-4.6,4.6-13.3,5.1-20.3,7.3C142.4,180.1,135.1,182.3,127.3,184.7z"/>
	<path d="M406.6,406.6c-26.9-7.5-52.8-14.7-79.3-22c3.4-10.8,7.3-21.1,9.7-31.7c2-9.2,6.6-13.9,15.9-15.9
		c10.5-2.3,20.6-6.2,31.7-9.7C391.9,353.6,399.1,379.6,406.6,406.6z"/>
	<path d="M384.6,184.6c-14.3-4.5-27.9-8.8-41.4-13.1c-1.1-0.3-2.4-1.4-2.7-2.4c-4.4-13.7-8.7-27.4-13.2-41.7
		c26.4-7.3,52.4-14.5,79.3-22C399.1,132.2,391.9,158.1,384.6,184.6z"/>
	<path d="M256.2,271.9c-9,0.1-16.2-7-16.2-16c0-8.4,7-15.5,15.5-15.8c8.7-0.2,16.2,6.8,16.4,15.3
		C272.2,264.4,265.2,271.7,256.2,271.9z"/>
</g>
</svg>
