<?xml version="1.0" encoding="utf-8"?>
<!-- Generator: Adobe Illustrator 23.0.2, SVG Export Plug-In . SVG Version: 6.00 Build 0)  -->
<svg version="1.1" id="Capa_1" xmlns="http://www.w3.org/2000/svg" xmlns:xlink="http://www.w3.org/1999/xlink" x="0px" y="0px"
	 viewBox="0 0 256 256" style="enable-background:new 0 0 256 256;" xml:space="preserve">
<g>
	<g>
		<path d="M226.7,211.6L159.4,85.5v-64h6.7c2.9,0,5.3-2.4,5.3-5.3V5.3c0-2.9-2.4-5.3-5.3-5.3h-6.7H90.9h-6.1c-2.9,0-5.3,2.4-5.3,5.3
			v10.8c0,2.9,2.4,5.3,5.3,5.3h6.1v64L28.9,211c-15.8,24.8-4.8,45,24.6,45h149.3C232.3,256,243,236.1,226.7,211.6z M110,94.9
			l2.2-4.5v-5v-64H138v64v5.3l2.5,4.7l28.9,54H83L110,94.9z"/>
	</g>
</g>
</svg>
