<?xml version="1.0" encoding="utf-8"?>
<!-- Generator: Adobe Illustrator 23.0.2, SVG Export Plug-In . SVG Version: 6.00 Build 0)  -->
<svg version="1.1" id="Capa_1" xmlns="http://www.w3.org/2000/svg" xmlns:xlink="http://www.w3.org/1999/xlink" x="0px" y="0px"
	 viewBox="0 0 256 256" style="enable-background:new 0 0 256 256;" xml:space="preserve">
<g>
	<path d="M181.9,253.9c-14.6-4.5-45-16.3-46-36.6c0,0,0.2-25.7,0.2-46.7c5.2-2.9,8.8-8.4,8.8-14.7c0-3.4-1-6.6-2.8-9.3
		c8.2-13.7,23.3-26.8,34.5-42.9C192.5,80.4,174.1,0,174.1,0S141.4,3.5,127,3.5C112.5,3.5,82.1,0,82.1,0s-18.4,80.4-2.5,103.6
		c11.1,16.1,26.1,29,34.4,42.7c-1.8,2.7-2.9,6-2.9,9.5c0,6.5,3.7,12,9,14.9c0,19.3,0,42.5,0,46.1c-0.5,20.6-31.3,32.6-46.1,37.1
		c-3.2,1.1-2.3,2.1,0,2.1c2.2,0,49,0,53.7,0c0.3,0,0.5,0,0.5,0c4.7,0,51.5,0,53.7,0C184.2,256,185.1,254.9,181.9,253.9z M88.1,82
		c-3.2-22.3,5.3-67.8,5.3-67.8s0.5,43.4,4.9,65.6c4.4,22.2,21.9,56,21.9,56S91.3,104.3,88.1,82z"/>
</g>
</svg>
