<?xml version="1.0" encoding="utf-8"?>
<!-- Generator: Adobe Illustrator 22.1.0, SVG Export Plug-In . SVG Version: 6.00 Build 0)  -->
<svg version="1.1" id="Camada_1" xmlns="http://www.w3.org/2000/svg" xmlns:xlink="http://www.w3.org/1999/xlink" x="0px" y="0px"
	 viewBox="0 0 256 256" style="enable-background:new 0 0 256 256;" xml:space="preserve">
<g>
	<path d="M0,20.4v215.2C0,246.8,9.5,256,21.3,256h213.4c11.7,0,21.4-9.1,21.4-20.4V20.4C256.1,9.2,246.5,0,234.7,0H21.4
		C9.5,0,0,9.2,0,20.4z M81.2,197.4c0,14.5-12.4,26.4-27.6,26.4S26.1,212,26.1,197.4c0-14.5,12.4-26.4,27.6-26.4
		C68.8,171.1,81.2,182.9,81.2,197.4z M229.5,53.1c0,14.6-12.4,26.3-27.6,26.3s-27.7-11.8-27.7-26.3s12.4-26.3,27.7-26.3
		C217.1,26.7,229.5,38.5,229.5,53.1z M155.6,128c0,14.6-12.4,26.4-27.6,26.4s-27.6-11.8-27.6-26.4c0-14.5,12.4-26.3,27.6-26.3
		S155.6,113.5,155.6,128z"/>
</g>
</svg>
