<?xml version="1.0" encoding="utf-8"?>
<!-- Generator: Adobe Illustrator 22.1.0, SVG Export Plug-In . SVG Version: 6.00 Build 0)  -->
<svg version="1.1" id="Capa_1" xmlns="http://www.w3.org/2000/svg" xmlns:xlink="http://www.w3.org/1999/xlink" x="0px" y="0px"
	 viewBox="0 0 256 256" style="enable-background:new 0 0 256 256;" xml:space="preserve">
<g>
	<path d="M235.6,0H20.3C9.1,0,0,9.6,0,21.3v213.3C0,246.4,9.1,256,20.3,256h215.3c11.3,0,20.4-9.6,20.4-21.3V21.3
		C256,9.6,246.9,0,235.6,0z M58.5,81.1c-14.5,0-26.3-12.4-26.3-27.6c0-15.3,11.8-27.6,26.3-27.6c14.6,0,26.4,12.4,26.4,27.6
		C84.8,68.8,73,81.1,58.5,81.1z M200.8,228.6c-14.6,0-26.4-12.4-26.4-27.6s11.8-27.6,26.4-27.6c14.5,0,26.3,12.4,26.3,27.6
		S215.3,228.6,200.8,228.6z M199.2,81.6c-14.5,0-26.3-12.4-26.3-27.6c0-15.3,11.8-27.6,26.3-27.6s26.3,12.3,26.3,27.6
		C225.6,69.3,213.8,81.6,199.2,81.6z M59.1,228c-14.5,0-26.3-12.4-26.3-27.6c0-15.2,11.8-27.6,26.3-27.6c14.6,0,26.4,12.4,26.4,27.6
		C85.5,215.7,73.7,228,59.1,228z"/>
</g>
</svg>
