<?xml version="1.0" encoding="utf-8"?>
<!-- Generator: Adobe Illustrator 22.1.0, SVG Export Plug-In . SVG Version: 6.00 Build 0)  -->
<svg version="1.1" id="Camada_1" xmlns="http://www.w3.org/2000/svg" xmlns:xlink="http://www.w3.org/1999/xlink" x="0px" y="0px"
	 viewBox="0 0 256 256" style="enable-background:new 0 0 256 256;" xml:space="preserve">
<g>
	<path d="M235.5,0H20.4C9.1,0,0,9.6,0,21.4v213.4C0,246.5,9.1,256,20.4,256h215.2c11.2,0,20.4-9.5,20.4-21.3V21.4
		C255.9,9.6,246.7,0,235.5,0z M58.5,81.2c-14.5,0-26.4-12.4-26.4-27.7C32.1,38.4,43.9,26,58.5,26C73,26,84.8,38.4,84.8,53.5
		C84.8,68.8,73.1,81.2,58.5,81.2z M198.6,155.6c-14.6,0-26.3-12.4-26.3-27.6c0-15.2,11.8-27.6,26.3-27.6s26.4,12.4,26.4,27.6
		C225,143.4,213.1,155.6,198.6,155.6z M58.9,155.6c-14.5,0-26.3-12.4-26.3-27.6c0-15.2,11.8-27.6,26.3-27.6s26.3,12.4,26.3,27.6
		C85.2,143.4,73.4,155.6,58.9,155.6z M200.6,228.7c-14.5,0-26.3-12.4-26.3-27.6s11.8-27.6,26.3-27.6s26.3,12.4,26.3,27.6
		C227,216.3,215.2,228.7,200.6,228.7z M199.1,81.6c-14.5,0-26.3-12.4-26.3-27.6s11.8-27.6,26.3-27.6s26.3,12.4,26.3,27.6
		C225.5,69.3,213.7,81.6,199.1,81.6z M59.1,228c-14.5,0-26.3-12.4-26.3-27.6c0-15.3,11.8-27.6,26.3-27.6s26.4,12.4,26.4,27.6
		S73.7,228,59.1,228z"/>
</g>
</svg>
