<?xml version="1.0" encoding="utf-8"?>
<!-- Generator: Adobe Illustrator 23.0.2, SVG Export Plug-In . SVG Version: 6.00 Build 0)  -->
<svg version="1.1" id="Capa_1" xmlns="http://www.w3.org/2000/svg" xmlns:xlink="http://www.w3.org/1999/xlink" x="0px" y="0px"
	 viewBox="0 0 256 256" style="enable-background:new 0 0 256 256;" xml:space="preserve">
<g>
	<path d="M253.6,25.1c-0.5-2.9-2.5-5.3-5.3-6.3c-2.8-0.9-5.9-0.2-8,1.8c-28.8,27.9-68.4,41.3-89.1,46.8c7.7-6.6,12.7-16.4,12.7-27.3
		c0-19.8-16.1-35.9-35.9-35.9c-19.8,0-35.9,16.1-35.9,35.9c0,10.9,4.9,20.7,12.7,27.3C84.2,62,44.6,48.5,15.7,20.6
		c-2.1-2-5.2-2.8-8-1.8c-2.8,0.9-4.9,3.4-5.3,6.3C-2.7,56.9-5.4,128.5,66,150.4c-5,18.5-7.9,35.8-7.9,47.5
		c0,38.6,31.3,53.8,69.9,53.8c38.6,0,69.9-15.2,69.9-53.8c0-11.6-2.9-29-7.9-47.5C261.4,128.5,258.7,56.9,253.6,25.1z"/>
</g>
</svg>
