<?xml version="1.0" encoding="utf-8"?>
<!-- Generator: Adobe Illustrator 23.0.2, SVG Export Plug-In . SVG Version: 6.00 Build 0)  -->
<svg version="1.1" id="Capa_1" xmlns="http://www.w3.org/2000/svg" xmlns:xlink="http://www.w3.org/1999/xlink" x="0px" y="0px"
	 viewBox="0 0 256 256" style="enable-background:new 0 0 256 256;" xml:space="preserve">
<g>
	<g>
		<path d="M228.4,62.6c-2.5-13.1-6.8-26.3-14.8-37.1c-6.9-9.4-16.6-16.5-27.4-20.8c-10.8-4.3-23.2-6-34.7-3.5
			c-6.7,1.5-13,4.5-18.4,8.9c-5,4.1-9.2,9.1-12.8,14.5c-7.5,11.2-12.8,23.8-18.2,36.1c-5.5,12.8-11.1,25.6-18.6,37.5
			c-3.7,5.9-8.1,11.5-12.8,16.5c-4.4,4.7-9.4,8.8-14.8,12.4c0.2-0.1,0.2-0.2,0,0c-7.3,4.8-14.4,10.3-20.2,16.9
			c-5.6,6.3-10.5,14.1-10.8,22.8c-0.1,4.5,1,8.8,3.1,12.8c2.9,5.5,7.8,9.7,13.1,12.8c5.8,3.4,12.3,5.4,18.9,6.7
			c1.2,0.2,2.3,0.5,3.4,1c1.1,0.4,2.2,0.8,3.1,1.6c1,0.8,1.9,1.5,2.7,2.5c0.9,1.2,1.8,2.5,2.4,3.9c2.7,5.7,4.3,11.9,8.7,16.7
			c1.9,2.1,4.3,3.6,7,4.5c2.8,0.9,5.8,1.2,8.8,1.3c6,0,11.8-1.3,17.6-2.4c2.9-0.6,5.9-1.1,8.9-1.3c1.2-0.1,2.5-0.2,3.7-0.1
			c0.5,0.1,1,0.1,1.5,0.2c2,0.5,3.3,2.1,3.9,2.9c1.3,2,2.2,4.2,3,6.4c1.5,3.9,2.9,7.9,5.2,11.4c1.6,2.5,3.7,4.6,6.3,6.1
			c2.3,1.3,4.9,2.1,7.6,2.3c6,0.5,12-1.7,17-4.8c5.7-3.5,10.4-8.3,14.6-13.4c4.1-5.1,7.8-10.6,11.2-16.3c6.9-11.6,12.4-23.9,17-36.5
			c4.7-13,8.6-26.3,11.5-39.7c2.9-13.5,4.9-27.3,5.7-41.2C231.5,90.2,231,76.2,228.4,62.6z M161.2,54.9c-1.3,5.3-4.7,10.3-9.4,13
			c-4.5,2.6-10.6,3.2-15.4,1c-4.3-2-6.9-6.3-6.5-11c0.5-5.2,4.1-9.7,8.4-12.4c1.6-1,3.2-1.8,5-2.3c-1.8,0.6-2.5,0.8-2.5,0.8
			c0.1,0,1.3-0.4,2.5-0.8c0,0,0,0,0,0c0,0,0,0,0,0c4.4-1.4,2.2-0.7,0,0c4.4-1.4,10.1-2.5,14.3,0C161.8,45.5,162.2,50.7,161.2,54.9z
			 M204.7,74.1c-1.1,4.5-4.3,8.9-9,10c-4.9,1.2-9.7-1.5-12.7-5.2c-3.6-4.6-4.8-10.4-4.3-16.1c0.4-4.4,1.9-10,6.7-11.6
			c1.1-0.4,2.2-0.5,3.4-0.4c-0.8-0.1-1.5-0.1-1.9-0.1c0.3,0,0.9,0.1,1.9,0.1c0.4,0,0.7,0,0.9,0.1c0.3,0,0.6,0,0.8,0.1
			c-0.2,0-0.4,0-0.8-0.1c-0.3,0-0.6,0-0.9-0.1c5,0.4,9.7,3.8,12.6,7.7C204.8,62.9,206,68.5,204.7,74.1z"/>
		<path d="M56,127.1C56,127.1,56,127.1,56,127.1C54.4,128.2,41.2,136.9,56,127.1z"/>
	</g>
</g>
</svg>
