<?xml version="1.0" encoding="utf-8"?>
<!-- Generator: Adobe Illustrator 27.7.0, SVG Export Plug-In . SVG Version: 6.00 Build 0)  -->
<svg version="1.1" id="Camada_1" xmlns="http://www.w3.org/2000/svg" xmlns:xlink="http://www.w3.org/1999/xlink" x="0px" y="0px"
	 viewBox="0 0 512 512" style="enable-background:new 0 0 512 512;" xml:space="preserve">
<g>
	<path d="M511,205.3c-1,3.4-2.4,6.8-2.9,10.3c-2.8,18.8-10.5,35.9-20.9,51.4c-11.1,16.6-23.1,32.7-35.9,47.9
		c-12.5,14.9-26.4,28.7-40.2,42.4c-12,11.9-24.6,23.3-37.3,34.5c-29.1,25.4-59.1,49.6-92.1,70c-3.2,2-6.9,3.2-10.8,4.9
		c-6-19.3-11.9-38-17.7-56.8c-3.1-10.1-6.2-20.3-9-30.5c-0.4-1.6,0-4.1,1.1-5.3c12.3-13.9,24.8-27.6,37.1-41.5c0.9-1,1.1-3.7,0.4-5
		c-11.8-23.2-23.9-46.4-36.1-70c18.2-17.7,36.3-35.4,54.9-53.5c-16.3-18.7-32.4-37.1-48.6-55.7c15.6-27.1,31.3-54,46.5-81.2
		c3.4-6.1,7.1-10.4,13.8-12.8c14.3-5.1,28.5-9.6,43.9-10.8c34.3-2.8,65.3,6.4,93.1,25.7c18.5,12.8,32.6,29.9,43,50
		c6.7,12.9,11.3,26.5,14.6,40.5c1.2,5.1,2.1,10.2,3.2,15.3c0,1.3,0,2.7,0,4c-0.3,1.3-0.6,2.6-0.9,3.9c0,4.7,0,9.4,0,14.1
		c0.3,1.3,0.6,2.6,0.9,3.9C511,202.6,511,203.9,511,205.3z"/>
	<path d="M1,174.4c1-4.8,2.1-9.6,3-14.4c3.6-19.7,11.5-37.7,22.4-54.4C41.3,83,61,66,85.9,55.2c13.7-6,28.1-10,43.2-11.4
		c32.8-3.2,62.6,5.5,90.7,21.9c4.8,2.8,9.7,5.6,14.8,8.5c-15.6,27.3-31,54.2-46.7,81.8c18.4,16.2,36.6,32.3,55,48.5
		c-14.6,19.1-29,38.1-43.6,57c-2.3,3-1.6,4.9,0.3,7.6c14.5,20.7,28.9,41.5,43.3,62.2c-10.5,16.9-21,33.7-31.4,50.6
		c-0.6,0.9-0.6,2.5-0.2,3.6c10.6,27.1,21.2,54.2,32,81.8c-9.8-1.9-17.4-7-24.7-12.2c-17.5-12.6-34.8-25.4-51.7-38.7
		c-12.6-9.9-24.5-20.7-36.4-31.3c-9.8-8.8-19.4-17.9-29-26.9c-6.8-6.3-13.7-12.5-20.1-19.1c-22.1-22.8-42.6-46.9-59.1-74.1
		c-10-16.5-16.8-34.2-20.4-53.2c-0.4-2.1-0.7-4.3-1-6.4C1,195,1,184.7,1,174.4z"/>
</g>
</svg>
