<?xml version="1.0" encoding="utf-8"?>
<!-- Generator: Adobe Illustrator 21.1.0, SVG Export Plug-In . SVG Version: 6.00 Build 0)  -->
<svg version="1.1" id="Camada_1" xmlns="http://www.w3.org/2000/svg" xmlns:xlink="http://www.w3.org/1999/xlink" x="0px" y="0px"
	 viewBox="0 0 256 256" style="enable-background:new 0 0 256 256;" xml:space="preserve">
<g>
	<path d="M87.7,223.8c-5.7-5.2-9.8-12-11.9-19.7L44.5,85.4c-5.8-21.8,7.3-44.3,29.1-50l53.3-14.1c-9.2-7.1-21.8-9.3-33.3-4.7
		L21.1,46.1C3.8,53-4.5,72.7,2.5,89.9l46.1,113.8C54.9,219.5,71.7,227.7,87.7,223.8z"/>
	<path d="M54.5,83.5l31.3,118.7c2.8,10.7,10.4,18.7,19.9,22.6c-3.3-5.9-5.2-12.7-5.2-19.9V82.1c0-22.6,18.4-40.9,40.9-40.9h52
		c-6.6-14.8-23.1-23.1-39.3-18.9l-75.7,20C60.5,47,49.7,65.5,54.5,83.5z"/>
	<path d="M222.3,51.6h-78.2c-18.6,0-33.7,15.1-33.7,33.7V208c0,18.6,15.1,33.7,33.7,33.7h78.2c18.6,0,33.7-15.1,33.7-33.7V85.3
		C256,66.6,240.9,51.6,222.3,51.6z M202.2,168.9c-4.9,0-9.4-1.8-12.9-4.7l4.1,13.1c0.8,2.6-0.7,4.7-3.4,4.7h-13.5
		c-2.7,0-4.3-2.1-3.7-4.7l3.2-12.2c-3.3,2.5-7.5,3.9-11.9,3.9c-11.1,0-20.1-9-20.1-20.1c0-11.1,9-20.1,20.1-20.1c1,0,2,0.1,2.9,0.2
		c-2.5-3.4-4-7.5-4-12c0-11.1,9-20.1,20.1-20.1c11.1,0,20.2,9,20.2,20.1c0,4.5-1.5,8.7-4,12c0.9-0.1,1.9-0.2,2.9-0.2
		c11.1,0,20.2,9,20.2,20.1C222.4,159.9,213.3,168.9,202.2,168.9z"/>
</g>
</svg>
