<?xml version="1.0" encoding="utf-8"?>
<!-- Generator: Adobe Illustrator 27.5.0, SVG Export Plug-In . SVG Version: 6.00 Build 0)  -->
<svg version="1.1" id="Capa_1" xmlns="http://www.w3.org/2000/svg" xmlns:xlink="http://www.w3.org/1999/xlink" x="0px" y="0px"
	 viewBox="0 0 512 512" style="enable-background:new 0 0 512 512;" xml:space="preserve">
<g>
	<path d="M201.6,53.2c-27.6,27.6-44.5,62-50.6,97.9c-35.9,6.1-70.2,23-97.9,50.6c-70.9,70.9-70.9,186.3,0,257.2s186.3,70.9,257.2,0
		c27.6-27.6,44.5-62,50.6-97.9c35.9-6.1,70.2-23,97.9-50.6c70.9-70.9,70.9-186.3,0-257.2S272.5-17.7,201.6,53.2z M316.2,316.2
		c-29.8-3.1-58.8-16-81.5-38.8s-35.7-51.7-38.8-81.5c29.8,3.1,58.8,16,81.5,38.8S313.1,286.4,316.2,316.2z M86.2,425.8
		c-52.7-52.7-52.7-138.5,0-191.2c18-18,40-29.9,63.1-35.6c3.8,40.7,21.3,80.3,52.4,111.3c31.1,31.1,70.7,48.5,111.3,52.4
		c-5.7,23.1-17.6,45.1-35.6,63.1C224.7,478.5,138.9,478.5,86.2,425.8z M425.8,277.4c-18,18-40,29.9-63.1,35.6
		c-3.8-40.7-21.3-80.3-52.4-111.3s-70.7-48.5-111.3-52.4c5.7-23.1,17.6-45.1,35.6-63.1c52.7-52.7,138.5-52.7,191.2,0
		S478.5,224.7,425.8,277.4z"/>
</g>
</svg>
