<?xml version="1.0" encoding="utf-8"?>
<!-- Generator: Adobe Illustrator 21.1.0, SVG Export Plug-In . SVG Version: 6.00 Build 0)  -->
<svg version="1.1" id="Capa_1" xmlns="http://www.w3.org/2000/svg" xmlns:xlink="http://www.w3.org/1999/xlink" x="0px" y="0px"
	 viewBox="0 0 256 256" style="enable-background:new 0 0 256 256;" xml:space="preserve">
<style type="text/css">
	.st0{fill:#010002;}
</style>
<g>
	<g>
		<path class="st0" d="M255.6,61.6c0.5,2,0.2,3.9-1.1,5.7c-1.3,1.8-3,2.9-5.1,3.3c-30.9,4.3-46.5,18.8-46.9,43.4h27.9
			c2,0,3.7,0.7,5.1,2.2c1.4,1.4,2.2,3.2,2.2,5.1v104.6c0,2.2-0.7,4-2.2,5.4c-1.4,1.4-3.2,2.2-5.1,2.2h-87.5c-2,0-3.7-0.7-5.3-2.2
			c-1.5-1.4-2.3-3.3-2.3-5.4v-90.5c0-35.8,8.8-63,26.3-81.8c17.5-18.8,43.9-29.1,79.1-30.9c1.8-0.2,3.4,0.3,4.9,1.4
			c1.4,1.1,2.3,2.5,2.7,4.3L255.6,61.6L255.6,61.6z M120.4,61.6c0.5,2,0.2,3.9-1.1,5.7c-1.4,2-3.2,3.1-5.1,3.3
			c-30.9,4.3-46.5,18.8-46.9,43.4h27.9c2,0,3.7,0.7,5.1,2.2c1.4,1.4,2.2,3.2,2.2,5.1v104.6c0,2.2-0.7,4-2.2,5.4
			c-1.4,1.4-3.2,2.2-5.1,2.2H7.7c-2,0-3.7-0.7-5.3-2.2c-1.5-1.4-2.3-3.3-2.3-5.4v-90.5c0-35.8,8.8-63,26.3-81.8
			c17.5-18.8,43.9-29.1,79.1-30.9c1.8-0.2,3.4,0.3,4.9,1.4c1.4,1.1,2.3,2.5,2.7,4.3L120.4,61.6z"/>
	</g>
</g>
</svg>
