<?xml version="1.0" encoding="utf-8"?>
<!-- Generator: Adobe Illustrator 21.1.0, SVG Export Plug-In . SVG Version: 6.00 Build 0)  -->
<svg version="1.1" id="Camada_1" xmlns="http://www.w3.org/2000/svg" xmlns:xlink="http://www.w3.org/1999/xlink" x="0px" y="0px"
	 viewBox="0 0 256 256" style="enable-background:new 0 0 256 256;" xml:space="preserve">
<path d="M182.5,71.4c-18.2-30-38.3-55.9-48.8-68.7C132.3,1,130.2,0,128,0c-2.2,0-4.3,1-5.7,2.7c-10.4,12.8-30.6,38.7-48.8,68.7
	c-23.4,38.6-35.3,70.5-35.3,94.9c0,49.5,40.2,89.7,89.7,89.7s89.7-40.2,89.7-89.7C217.7,141.9,205.8,110,182.5,71.4z M140.3,223
	c-5.2,1.3-10.7,2-16.2,2c-33.5,0-60.8-25.3-60.8-56.5c0-7.5,2-16.3,5.9-26.1c0.7-1.7,2.5-2.6,4.4-2.2c1.9,0.4,3.1,2,2.9,3.8
	c-0.2,2.1-0.3,4.2-0.3,6.1c0,33.9,27.3,62.3,63.5,66c1.8,0.2,3.2,1.5,3.4,3.2C143.2,221,142.1,222.5,140.3,223z"/>
</svg>
