<?xml version="1.0" encoding="utf-8"?>
<!-- Generator: Adobe Illustrator 21.1.0, SVG Export Plug-In . SVG Version: 6.00 Build 0)  -->
<svg version="1.1" id="Camada_1" xmlns="http://www.w3.org/2000/svg" xmlns:xlink="http://www.w3.org/1999/xlink" x="0px" y="0px"
	 viewBox="0 0 256 256" style="enable-background:new 0 0 256 256;" xml:space="preserve">
<title>icon_knowledges</title>
<path d="M88.7,109.8v94c0,4.2-2.7,7.9-6.6,9.3c-6.4,2.1-13,3.1-19.7,3l0,0c-20.6,0.6-42.6-8.4-42.6-26.9V69
	c-0.9-12.6,5.3-24.5,16.1-31c6.5-3.6,40.2-25.4,57.2-36.3c4.5-3,10.6-1.7,13.6,2.8c1.1,1.6,1.6,3.5,1.6,5.5v14.3
	c0,5.4-4.3,9.9-9.8,9.9c-4.2,0-7.9-2.6-9.3-6.5c-15.4,9.8-38,24.2-43.6,27.5c-3.8,2.4-6.1,6.5-6.2,11c-0.2,2.6,0.5,5.1,2,7.2
	c3.5,3.8,15.2,1.5,27.9-6.2s72.3-47.3,72.8-47.3c4.5-3.1,10.6-2,13.7,2.5c1.1,1.5,1.7,3.3,1.8,5.2v1.2c0,3.3-1.6,6.3-4.3,8.2
	l-45.7,30.3C93.4,76.1,88.7,87.4,88.7,109.8z M236.3,62.3v128c0,3.4-1.7,6.6-4.6,8.4c0,0-57.4,44.6-68.9,51.7
	c-6.9,3.9-14.6,5.9-22.5,5.7c-20.7,0-41.7-11.3-41.7-29.5V104l0,0c0.1-11.1,5.8-21.4,15.3-27.4c8.1-5.9,55.9-38.6,57.9-40
	c4.5-3.1,10.6-2,13.7,2.5c1.1,1.6,1.7,3.5,1.8,5.5v14.5c0,5.4-4.4,9.8-9.9,9.8c-3.9,0-7.5-2.4-9-6c-15.3,10.4-37.7,25.8-42.7,29.5
	c-5,3.7-7.2,7.8-7.3,11.7c-0.2,2.5,0.7,4.9,2.5,6.7c5,4.6,18.5,2.7,31.9-5.3c9.8-5.9,52.4-38.8,67.9-50.9c3-2.3,7-2.8,10.4-1.1
	C234.2,55.2,236.3,58.6,236.3,62.3z M216.6,106.2l-49.2,38.2V164l49.2-38.2V106.2z"/>
</svg>
