<?xml version="1.0" encoding="utf-8"?>
<!-- Generator: Adobe Illustrator 21.1.0, SVG Export Plug-In . SVG Version: 6.00 Build 0)  -->
<svg version="1.1" id="Camada_1" xmlns="http://www.w3.org/2000/svg" xmlns:xlink="http://www.w3.org/1999/xlink" x="0px" y="0px"
	 viewBox="0 0 256 256" style="enable-background:new 0 0 256 256;" xml:space="preserve">
<path d="M253.4,160.1l-32.1,12.7l10,33l-34.1-0.6l-3.2,34.1l-31.5-13.5L146.2,256l-23.8-24.7l-26.5,22.1l-12.7-32.1l-33,10.3
	l0.6-34.4l-34.1-3.2l13.5-31.5L0,146.5l24.7-24.1L2.6,95.9l32.1-12.7l-10-32.7l34.1,0.6l3.2-34.4l31.5,13.8L109.8,0l23.8,24.7
	l26.5-21.8l12.7,31.8l33-10l-0.6,34.4l34.1,3.2l-13.5,31.5l30.3,15.9l-24.7,23.8L253.4,160.1z"/>
</svg>
