<?xml version="1.0" encoding="utf-8"?>
<!-- Generator: Adobe Illustrator 21.1.0, SVG Export Plug-In . SVG Version: 6.00 Build 0)  -->
<svg version="1.1" id="Camada_1" xmlns="http://www.w3.org/2000/svg" xmlns:xlink="http://www.w3.org/1999/xlink" x="0px" y="0px"
	 viewBox="0 0 256 256" style="enable-background:new 0 0 256 256;" xml:space="preserve">
<g transform="rotate(25, 35, 40)">
	<path d="M304.3,138.1l-2,1.1c-1,0.6-25.8,14-68.2,14c-15.9,0-32.3-1.9-48.8-5.7c-20-4.6-37.5-7.3-52.3-8.9
		c-14.1-1.5-25.7-1.9-34.5-1.9c-15,0-23.3,1.3-23.3,1.3l-3.2,0.5l-0.2-0.6l-0.8-2.2c-0.3,1.6-0.6,3.2-0.9,4.9
		c-0.4,1.1-0.6,2.2-0.5,3.5c0,0,0,0,0,0c-1,7.8-1.1,15,1.3,14.5c5-0.9,52.9,3.6,64.5,3.6c5.7,0,8.2-5,9.4-10
		c11,1.2,21.5,3.3,29.8,6.5c14.4,5.6,33.8,8,53.7,8c29.9,0,60.8-5.5,76.7-14.3c3.9-2.1,5.3-7,3.2-10.9
		C307.1,139.9,305.8,138.7,304.3,138.1z"/>
	<path d="M73,127c0.5,4.6,1.4,7,1.4,7s8.3-1.3,24-1.3c2.8,0,5.9,0.1,9.2,0.2c11,0.3,24.5,1.4,40.3,3.6c5.1,0.7,10.5,1.6,16.1,2.6
		c7,1.3,14.3,2.8,22.1,4.5c17.8,4.1,33.8,5.6,47.9,5.6c41.9,0,66.3-13.5,66.3-13.5c-0.4-20.3-18.5-25-36.5-26.6
		c-1.9-0.2-3.8-0.2-5.7-0.2c-3.8,0-7.7,0.2-11.6,0.2c-10.9,0-21.7-1.6-30.6-13.9c-1.5,2-2.9,4-4.1,6.2c-2.1,3.7-7.5-0.1-5.4-3.8
		c1.6-2.9,3.6-5.6,5.6-8.2c-4-5.8-8-10.3-11.8-14c-3.1,2.6-5.7,5.9-8,9.4c-2.3,3.6-8.2,0.3-5.8-3.2c2.5-3.9,5.4-7.6,8.9-10.7
		c-3.5-3.1-6.6-5.6-8.8-8.1c-4.8,3-9,7.1-12.7,11.6c-2.7,3.3-8.1-0.6-5.4-3.9c4.1-5,9-9.8,14.5-13.3c-0.6-1.7-0.8-3.5-0.4-5.7
		c0.3-1.8,0.3-4.1,0.2-6.9c-7.9,0.2-15.7,0.8-23.5,1.8c-4.2,0.6-4.2-6.1,0-6.6c7.7-1,15.4-1.6,23.1-1.8c-0.5-6-1.3-13.1-2.3-20.6
		c-9.6-0.1-19,0.5-28.4,2.6c-4.2,0.9-5.9-5.5-1.8-6.4c9.7-2.2,19.5-2.9,29.3-2.8c-2.2-15.9-4.7-31.8-4.9-39.3
		c-0.2-6.1-4.5-7.8-11.4-7.8c-9,0-22.3,3-36,3c-2.2,0-4.4-0.1-6.5-0.2c-2-0.2-4-0.2-5.9-0.2c-22.9,0-36,10.6-36,10.6
		s25.3,54.8,6.6,95.5C72.4,99.3,72,117.8,73,127z"/>
</g>
</svg>
