<?xml version="1.0" encoding="utf-8"?>
<!-- Generator: Adobe Illustrator 27.8.1, SVG Export Plug-In . SVG Version: 6.00 Build 0)  -->
<svg version="1.1" id="Camada_1" xmlns="http://www.w3.org/2000/svg" xmlns:xlink="http://www.w3.org/1999/xlink" x="0px" y="0px"
	 viewBox="0 0 512 512" style="enable-background:new 0 0 512 512;" xml:space="preserve">
<g>
	<path d="M483.9,256.4c0,32.2-0.2,64.4,0.1,96.5c0.2,23.4-9.4,40.5-29.9,52.2c-56.2,32.1-112.2,64.4-168,97
		c-20.3,11.8-39.7,11.9-60.1,0c-55.8-32.6-111.9-64.9-168.1-97c-20.5-11.7-30-28.7-29.9-52.2c0.3-64.6,0.2-129.1,0-193.7
		c-0.1-23.2,9.4-40.1,29.7-51.7c57-32.6,113.8-65.6,170.7-98.5c18.2-10.5,36.5-10.8,54.7-0.3C340.9,42,398.7,75.4,456.4,108.8
		c18.5,10.7,27.5,26.8,27.5,48C484,190,483.9,223.2,483.9,256.4z M256.1,152.7c-58.3,0.4-103.9,46.4-103.6,104.4
		c0.3,57,46.9,102.9,104.3,102.6c56.9-0.3,103-46.8,102.7-103.5C359.3,198.7,313,152.3,256.1,152.7z"/>
	<path d="M204.1,256.1c0.1-28.4,23.4-51.7,51.8-51.8c28.5-0.1,52.3,23.8,52,52.2c-0.3,28.5-23.8,51.7-52.1,51.5
		C227.4,307.9,204.1,284.5,204.1,256.1z"/>
</g>
</svg>
