<?xml version="1.0" encoding="utf-8"?>
<!-- Generator: Adobe Illustrator 21.1.0, SVG Export Plug-In . SVG Version: 6.00 Build 0)  -->
<svg version="1.1" id="Camada_1" xmlns="http://www.w3.org/2000/svg" xmlns:xlink="http://www.w3.org/1999/xlink" x="0px" y="0px"
	 viewBox="0 0 256 256" style="enable-background:new 0 0 256 256;" xml:space="preserve">
<g>
	<path d="M125.7,113.4c-2.1-0.6-4.2-0.9-6.5-0.9c-13.4,0-24.4,10.9-24.4,24.4s10.9,24.4,24.4,24.4s24.4-10.9,24.4-24.4
		c0-2.3-0.3-4.4-0.9-6.5l67.9-67.9l11,1.5L256,29.5l-26-3.5l-3.5-26l-34.4,34.4l1.5,11L125.7,113.4z"/>
	<path d="M121.8,90l20.1-20.1c-24.6-8.4-53.1-2.7-72.7,17c-27.6,27.6-27.6,72.4,0,100s72.4,27.6,99.9,0c19.7-19.7,25.3-48,17-72.7
		l-20.1,20.1c0.7,12.9-3.8,26-13.7,35.8c-18.3,18.3-48,18.3-66.3,0s-18.3-48,0-66.4C95.9,93.8,109,89.3,121.8,90z"/>
	<path d="M203.5,96.8c16.5,34.6,10.4,77.3-18.3,106c-36.4,36.4-95.4,36.4-131.9,0s-36.4-95.5,0-131.9c28.7-28.7,71.3-34.8,106-18.3
		l19.2-19.2C132.9,7.3,73.8,13.7,34.9,52.5c-46.6,46.6-46.6,122,0,168.6c46.6,46.6,122,46.6,168.5,0c38.9-38.9,45.3-98,19.2-143.6
		L203.5,96.8z"/>
</g>
</svg>
