<?xml version="1.0" encoding="utf-8"?>
<!-- Generator: Adobe Illustrator 23.0.2, SVG Export Plug-In . SVG Version: 6.00 Build 0)  -->
<svg version="1.1" id="Capa_1" xmlns="http://www.w3.org/2000/svg" xmlns:xlink="http://www.w3.org/1999/xlink" x="0px" y="0px"
	 viewBox="0 0 256 256" style="enable-background:new 0 0 256 256;" xml:space="preserve">
<g>
	<g>
		<g>
			<path d="M195.4,67.4c0-37.2-30.2-67.4-67.4-67.4S60.6,30.2,60.6,67.4c0,53.3,67.4,132.2,67.4,132.2S195.4,120.4,195.4,67.4z
				 M94.8,63.4c0-18.4,14.9-33.2,33.2-33.2s33.2,14.9,33.2,33.2S146.3,96.6,128,96.6S94.8,81.7,94.8,63.4z"/>
			<circle cx="128" cy="63.4" r="16.3"/>
			<path d="M166.1,176.2c-5.5,7.9-10.6,14.8-14.9,20.4c42.6,2.6,70.5,11.7,80.8,18.6c-12.2,8-48.3,19.3-104,19.3
				c-55.7,0-91.8-11.3-104-19.3c10.4-6.8,38.3-16,80.8-18.6c-4.3-5.5-9.5-12.5-15-20.4c-52.4,5.2-90.4,20.7-90.4,39
				c0,22.5,57.6,40.8,128.6,40.8c71,0,128.6-18.3,128.6-40.8C256.6,196.8,218.5,181.3,166.1,176.2z"/>
		</g>
	</g>
</g>
</svg>
