<?xml version="1.0" encoding="utf-8"?>
<!-- Generator: Adobe Illustrator 27.7.0, SVG Export Plug-In . SVG Version: 6.00 Build 0)  -->
<svg version="1.1" id="Camada_1" xmlns="http://www.w3.org/2000/svg" xmlns:xlink="http://www.w3.org/1999/xlink" x="0px" y="0px"
	 viewBox="0 0 512 512" style="enable-background:new 0 0 512 512;" xml:space="preserve">
<style type="text/css">
	.st0{fill:#D6D6D6;}
</style>
<g>
	<path d="M226.8,471.1c-20.1-2-39.2-7.5-57.8-15.1c-18.7-7.7-35.8-18-51.2-30.8c-24.9-20.6-44.9-45.3-59.1-74.5
		c-9.9-20.5-16.8-41.8-20-64.3c-0.2-1.6-0.9-3.1-1.4-4.8c-12.3,0-24.6,0-37.2,0c0-17.2,0-34,0-51.4c13.5,0,26.9,0,40.4,0
		c2.5-28.6,11-55.2,24.7-79.7c7.7-13.8,17.6-26.6,27.6-39c18.1-22.4,40.9-39.1,66.6-51.8c19.7-9.8,40.4-17,62.3-20
		c0.2,0,0.3,0,0.5-0.1c8.1-1.8,8.1-1.8,8.1-10.4c0-9.6,0-19.3,0-29.2c17.1,0,33.9,0,51.2,0c0,12.6,0,25.3,0,38.3
		c20,2.9,38.9,7.8,57.1,15.4c18.6,7.8,36,17.7,51.5,30.7c8.7,7.3,17.2,15,25.1,23.2c11.9,12.2,21.6,26.2,29.9,41.1
		c10,17.9,17,36.9,21.7,56.8c1.6,6.9,2.1,14.1,3.4,21.1c0.3,1.4,2.2,3.5,3.4,3.5c12.8,0.1,25.6-0.1,38.5-0.2c0,17.3,0,34.7,0,52
		c-14.6,0-29.2,0-43.8,0c-6.4,49.6-26.9,91.9-62.5,126.9c-35.4,34.8-77.8,55.2-126.9,62.3c0,13.9,0,27.4,0,40.9c-17,0-34,0-51,0
		c-0.1-0.3-0.2-0.7-0.2-1c0-13,0-26,0-39C227.3,471.7,227.1,471.4,226.8,471.1z M127.4,230.3c0,17.2,0,34.1,0,51.4
		c-12,0-23.8,0-36,0c0.5,2.4,1.1,4.3,1.4,6.2c2.3,16,7.9,31,15.2,45.2c11.4,22.2,27.3,40.8,47.3,55.8c20.6,15.4,43.4,25.7,68.8,30
		c5.9,1,6,0.8,6-4.9c0-9.9,0-19.9,0-29.9c17.4,0,34.1,0,51.6,0c0,12,0,23.9,0,35.6c36.1-5.3,66.6-21.1,91.7-46.2
		c25.3-25.2,40.9-55.9,45.8-92.2c-12.3,0-23.7,0-35.1,0c0-17.2,0-34,0-51.1c11.7,0,23.1,0,35.3,0c-6.9-43.4-27-78.5-61-105.2
		c-22.5-17.7-48-28.9-77.1-32.4c0,12.2,0,23.5,0,34.9c-17.2,0-34,0-51.4,0c0-11.7,0-23.1,0-35.3c-43.2,6.3-77.8,26.5-104.6,59.8
		c-18.3,22.7-29.5,48.8-33.7,78.3C104,230.3,115.6,230.3,127.4,230.3z"/>
	<path class="st0" d="M277.9,446.7c0,0.2,0.1,0.4,0.1,0.6c-0.2,0-0.4,0-0.6,0C277.6,447.1,277.8,446.9,277.9,446.7z"/>
	<path class="st0" d="M226.8,471.1c0.3,0.3,0.5,0.6,0.8,0.9C227.3,471.7,227.1,471.4,226.8,471.1z"/>
	<path d="M254.6,179.8c44.2-1.4,74.3,33.8,77.3,68.5c4.3,50.7-36.5,86.5-80.9,84.6c-36.3-1.6-74.6-34-72.3-81.6
		C180.5,215.5,212,178.1,254.6,179.8z"/>
</g>
</svg>
