<?xml version="1.0" encoding="utf-8"?>
<!-- Generator: Adobe Illustrator 23.0.2, SVG Export Plug-In . SVG Version: 6.00 Build 0)  -->
<svg version="1.1" id="Camada_1" xmlns="http://www.w3.org/2000/svg" xmlns:xlink="http://www.w3.org/1999/xlink" x="0px" y="0px"
	 viewBox="0 0 256 256" style="enable-background:new 0 0 256 256;" xml:space="preserve">
<path d="M0.5,224.8l13.4-13.4l31.2,31.2L31.8,256L0.5,224.8z"/>
<path d="M86.3,76.9l1.1-31.1L0,0l44.5,88.7l31.2-1.2l13,13l10.6-10.6L86.3,76.9z"/>
<path d="M245,57.4L256,0l-56.9,11.5L78.8,131.9l17.6,17.6l59.8-59.8l10.6,10.6L107,160.1l17.6,17.6L245,57.4z"/>
<path d="M156,167.8l89.5,88.2l10.5-10.7l-89.4-88.1L156,167.8z"/>
<path d="M105.5,227.4c5.3,0,10.4-2.1,14.1-5.9c7.8-7.8,7.8-20.5,0-28.3l-56.4-56.4c-7.8-7.8-20.5-7.8-28.3,0
	c-3.8,3.8-5.9,8.8-5.9,14.1s2.1,10.4,5.9,14.1l12.6,12.6l-23,23L55.8,232l23-23l12.6,12.6C95.2,225.4,100.2,227.4,105.5,227.4z"/>
</svg>
