<?xml version="1.0" encoding="utf-8"?>
<!-- Generator: Adobe Illustrator 23.0.2, SVG Export Plug-In . SVG Version: 6.00 Build 0)  -->
<svg version="1.1" id="Capa_1" xmlns="http://www.w3.org/2000/svg" xmlns:xlink="http://www.w3.org/1999/xlink" x="0px" y="0px"
	 viewBox="0 0 256 256" style="enable-background:new 0 0 256 256;" xml:space="preserve">
<g>
	<g>
		<path d="M244.9,71.7c2.2-3,3.6-6.8,4-11c0.3-4.1-0.5-8.1-2.3-11.4c-1.7-3.2-4.3-5.6-7.3-7.1c-1.8-7.8-7.5-13.6-14.8-14.4
			c-3.4-7.1-9.7-11.9-17-11.9l-0.9,0c-1.7,0.1-3.4,0.5-5,1.1c-3.9-5.8-9.7-9.5-16.3-9.5l-1,0c-3.6,0.2-6.8,1.5-9.6,3.5
			c-5.8-7.8-14.1-12.2-22.7-10.8c-14.1,2.3-22.4,17.9-19.5,36.4c1.5,9.4,5.8,17.2,11.5,22.4c-2.1,3-3.6,6.3-4.2,9.9
			c-3.6,20.5,11.4,33.1,21.3,41.5c2.2,1.9,4.3,3.6,6,5.4c6.1,6.3,7.1,16.7,2.4,23.2c-0.3,0.5-0.9,1.1-1.6,1.9
			c-7,8.5-25.6,30.9-18.3,55.3c4.1,13.9,13.8,22.6,28.7,25.7c4.2,0.9,8.2,1.3,11.9,1.3c22.5,0,36.4-15.6,37.2-41.8
			c0.3-10,1.9-17.8,5-24.8C242.7,133.7,259.1,96.1,244.9,71.7z"/>
		<path d="M103.9,32.9c-8.6-1.4-16.9,3-22.7,10.8c-2.8-2-6-3.3-9.6-3.5l-1,0c-6.6,0-12.4,3.7-16.3,9.5c-1.6-0.6-3.2-1.1-5-1.2
			l-0.9,0c-7.3,0-13.5,4.7-16.9,11.9c-7.2,0.8-12.8,6.5-14.7,14.3c-1.9,0.9-3.6,2.2-5.1,3.9c-3.3,3.8-5,9.2-4.6,14.8
			c0.3,4.2,1.8,8,3.9,11c-14.2,24.4,2.3,62,12.5,85.2c3.1,6.8,4.6,14.7,4.9,24.7c0.8,26.2,14.7,41.8,37.2,41.8
			c3.7,0,7.7-0.4,11.9-1.3c14.9-3.1,24.5-11.7,28.7-25.7c7.3-24.4-11.3-46.9-18.3-55.3c-0.7-0.8-1.2-1.5-1.6-2
			c-4.7-6.5-3.7-17,2.4-23.2c1.7-1.8,3.8-3.5,6-5.4c9.9-8.4,24.8-21,21.3-41.5c-0.6-3.6-2.1-6.9-4.2-9.9c5.7-5.1,10-13,11.5-22.4
			c1.2-7.7,0.5-15.3-2.1-21.6C117.8,39.5,111.5,34.1,103.9,32.9z"/>
	</g>
</g>
</svg>
