<?xml version="1.0" encoding="utf-8"?>
<!-- Generator: Adobe Illustrator 27.8.1, SVG Export Plug-In . SVG Version: 6.00 Build 0)  -->
<svg version="1.1" id="Camada_1" xmlns="http://www.w3.org/2000/svg" xmlns:xlink="http://www.w3.org/1999/xlink" x="0px" y="0px"
	 viewBox="0 0 512 512" style="enable-background:new 0 0 512 512;" xml:space="preserve">
<g>
	<path d="M1,189.4c3.5-5.3,6.5-11,10.5-15.6c7.7-8.7,16.1-16.8,24.2-25.2c4.2-4.4,9.1-7,15.1-6.9c5.3,0.1,8.1-2.5,9.3-8.2
		c0.8-3.7,2.1-7.6,4.3-10.6c29.8-41.7,68.5-70,116.2-83.2c27-7.5,53.7-4,77.2,13.4c7,5.2,12.8,12.8,18.3,19.9
		c4.3,5.6,3.6,13.6-0.4,19.2c-4.3,6.1-11.1,8.4-18.7,5.6c-16.2-6-31.5-3.2-46.2,5c-13.4,7.4-20.5,22.6-17.2,36.9
		c1,4.3,3.1,8.6,5.5,12.3c7,10.7,14.2,21.3,21.7,31.6c1.5,2.1,4.3,3.8,6.7,4.4c7,1.7,12.4,4.3,17.2,9.6
		c-21.8,21.5-43.5,42.9-65.4,64.5c-4.9-6-6.6-12.8-7.4-20c-0.2-1.8-0.7-4-1.9-5.1c-12.5-11.6-25-23.1-37.9-34.2
		c-3.1-2.7-7.3-4.1-11.1-5.7c-1.3-0.5-3.4-0.1-4.5,0.8c-0.6,0.5-0.3,2.9,0.2,4.2c4.2,11.1,2.7,19-5.3,27.3
		c-8.8,9.2-17.5,18.3-26.4,27.4c-10.2,10.5-21.8,10.4-32.1-0.2C38.5,241.8,24,227,9.8,211.9c-3.5-3.7-5.9-8.7-8.8-13
		C1,195.7,1,192.5,1,189.4z"/>
	<path d="M400.5,275.6c-6-1-17.4-2.2-28.5-4.9c-8.2-2-13.6-0.1-19.3,6.4c-51.9,59.3-104.1,118.4-156.3,177.4
		c-19.1,21.6-44.5,27.2-67.9,15.3c-34.7-17.6-43.2-67.4-15.5-95.7c30-30.8,60.9-60.5,91.5-90.6c26.6-26.3,53.2-52.7,80.1-78.8
		c5.6-5.4,7.2-10.8,5.2-18.7c-6.6-26.2-7.7-52.6,0.8-78.6c11-33.4,33.9-54.1,65-64.9c24.8-8.7,49.7-8.3,74.2,1.9
		c13.7,5.7,16.6,20.1,6.2,31.2c-15.7,16.8-31.5,33.4-47.2,50.2c-7.2,7.6-7.1,13.5,0.1,21.2c6.2,6.6,12.4,13.3,18.7,19.8
		c6.4,6.7,12.1,6.7,18.6-0.2c15.8-16.7,31.5-33.4,47.3-50.1c11.5-12.1,25-9.6,30.5,6.5c13.2,38.2,7.8,74.5-12.8,108
		C471.2,263.2,441.1,275.2,400.5,275.6z"/>
	<path d="M297.1,389.9c21.8-24.8,43.5-49.3,65.4-74.2c1.3,1.1,2.4,2,3.5,3c23.3,22.1,46.5,44.2,69.9,66.2
		c14.1,13.2,15.1,32.8,2,47.1c-10.7,11.6-21.5,23.1-32.4,34.3c-12.8,13.1-31.2,12.9-43.1-0.7c-21.5-24.5-42.7-49.3-64-74
		C297.9,391.3,297.7,390.8,297.1,389.9z"/>
</g>
</svg>
