<?xml version="1.0" encoding="utf-8"?>
<!-- Generator: Adobe Illustrator 23.0.2, SVG Export Plug-In . SVG Version: 6.00 Build 0)  -->
<svg version="1.1" id="Capa_1" xmlns="http://www.w3.org/2000/svg" xmlns:xlink="http://www.w3.org/1999/xlink" x="0px" y="0px"
	 viewBox="0 0 256 256" style="enable-background:new 0 0 256 256;" xml:space="preserve">
<g>
	<g>
		<path d="M140,0C87.1,0,44,43.1,44,96v14.1l-23.2,46.3c-1.2,2.5-1.1,5.4,0.4,7.8s4,3.8,6.8,3.8h16v38.5c0,4.7,2,9.1,5.6,12.2
			s8.3,4.4,12.9,3.6l29.4-4.9V248c0,2.4,1,4.6,2.8,6.1c1.5,1.2,3.3,1.9,5.2,1.9c0.4,0,0.9,0,1.3-0.1l96-16c3.9-0.6,6.7-4,6.7-7.9
			v-49.3c0-11.1,5.5-20.1,10.1-25.6C228.2,140,236,118.3,236,96C236,43.1,192.9,0,140,0z"/>
	</g>
</g>
</svg>
