<?xml version="1.0" encoding="utf-8"?>
<!-- Generator: Adobe Illustrator 23.0.2, SVG Export Plug-In . SVG Version: 6.00 Build 0)  -->
<svg version="1.1" id="Capa_1" xmlns="http://www.w3.org/2000/svg" xmlns:xlink="http://www.w3.org/1999/xlink" x="0px" y="0px"
	 viewBox="0 0 256 256" style="enable-background:new 0 0 256 256;" xml:space="preserve">
<path d="M59,141.2c-2.6-2.4-3-6.3-1-9.2c10.8-15.3,34.1-24.8,49.5-28.8v-6.8C91.7,84.8,82.4,62.1,82.4,45.6C82.4,20.5,102.8,0,128,0
	s45.6,20.5,45.6,45.6c0,16.5-9.4,39.1-25.2,50.8v6.8c15.4,4.1,38.8,13.5,49.5,28.8c2,2.9,1.6,6.8-1,9.2c-8,7.3-34,33.5-34,65.4
	c0,2.8,0.1,5.5,0.3,8.2c0.1,1.9-0.5,3.9-1.9,5.3c-1.3,1.4-3.2,2.2-5.1,2.2H99.7c-1.9,0-3.8-0.8-5.1-2.2c-1.3-1.4-2-3.3-1.9-5.3
	c0.2-2.7,0.3-5.4,0.3-8.2C93,174.7,67,148.5,59,141.2z M194.9,228.9H61.1c-3.9,0-7,3.1-7,7v13c0,3.9,3.1,7,7,7h133.8
	c3.9,0,7-3.1,7-7v-13C201.9,232.1,198.8,228.9,194.9,228.9z"/>
</svg>
