<?xml version="1.0" encoding="utf-8"?>
<!-- Generator: Adobe Illustrator 21.1.0, SVG Export Plug-In . SVG Version: 6.00 Build 0)  -->
<svg version="1.1" id="Capa_1" xmlns="http://www.w3.org/2000/svg" xmlns:xlink="http://www.w3.org/1999/xlink" x="0px" y="0px"
	 viewBox="0 0 256 256" style="enable-background:new 0 0 256 256;" xml:space="preserve">
<g>
	<path d="M254.4,81.8L201.7,4c-1.7-2.5-4.5-4-7.5-4H62.2c-3,0-5.8,1.5-7.5,4L1.9,81.8c-1,1.5-1.6,3.3-1.6,5.1c0,11.6,5,22.1,13,29.5
		v127.9c0,6.7,5.4,12.1,12.1,12.1h205.5c6.7,0,12.1-5.4,12.1-12.1V116.4c8-7.3,13-17.8,13-29.5C256,85.1,255.5,83.3,254.4,81.8z
		 M218.9,204.7H37.5v-77.8c1,0.1,1.9,0.1,2.9,0.1c11.3,0,21.8-4.8,29.3-12.7c7.4,7.9,17.9,12.7,29.3,12.7c11.3,0,21.8-4.8,29.3-12.7
		c7.4,7.9,17.9,12.7,29.3,12.7c11.3,0,21.8-4.8,29.3-12.7c7.4,7.9,17.9,12.7,29.3,12.7c1,0,2,0,2.9-0.1L218.9,204.7L218.9,204.7z"/>
	<g>
		<path d="M53.5,161.3c-1.1-1.1-2.6-1.7-4.1-1.7c-1.6,0-3,0.6-4.1,1.7c-1.1,1.1-1.7,2.6-1.7,4.1s0.6,3,1.7,4.1L73,197.3
			c1.1,1.1,2.6,1.7,4.1,1.7c1.6,0,3-0.6,4.1-1.7c1.1-1.1,1.7-2.6,1.7-4.1c0-1.6-0.6-3-1.7-4.1L53.5,161.3z"/>
		<path d="M89.7,173.3l-19.9-19.9c-1.1-1.1-2.6-1.7-4.1-1.7c-1.6,0-3,0.6-4.1,1.7c-1.1,1.1-1.7,2.6-1.7,4.1s0.6,3,1.7,4.1l19.9,19.9
			c1.1,1.1,2.6,1.7,4.1,1.7s3-0.6,4.1-1.7c1.1-1.1,1.7-2.6,1.7-4.1C91.4,175.9,90.8,174.4,89.7,173.3z"/>
	</g>
</g>
</svg>
