<?xml version="1.0" encoding="utf-8"?>
<!-- Generator: Adobe Illustrator 23.0.0, SVG Export Plug-In . SVG Version: 6.00 Build 0)  -->
<svg version="1.1" id="Camada_1" xmlns="http://www.w3.org/2000/svg" xmlns:xlink="http://www.w3.org/1999/xlink" x="0px" y="0px"
	 viewBox="0 0 256 256" style="enable-background:new 0 0 256 256;" xml:space="preserve">
<g>
	<path d="M256,90.5c0-31.5-18.7-58.7-45.6-71.1L133.9,96l15.6-66.9L145,28l-17.1,73.6l-0.1,0.1l-17.1-73.4l-4.5,1.1l15.5,66.4
		L45.3,19.6C18.5,32,0,59.1,0,90.5c0,37.2,26,68.3,60.7,76.2c-7.9,7.6-12.9,18.3-12.9,30.2c0,18.4,11.9,34.1,28.4,39.7l51.9-51.9
		l0.1,0.1l0.1-0.1l51.2,51.2c15.5-6.1,26.6-21.2,26.6-39c0-11.7-4.8-22.2-12.5-29.8C229.3,159.7,256,128.3,256,90.5z"/>
</g>
</svg>
