<?xml version="1.0" encoding="utf-8"?>
<!-- Generator: Adobe Illustrator 27.5.0, SVG Export Plug-In . SVG Version: 6.00 Build 0)  -->
<svg version="1.1" id="Camada_1" xmlns="http://www.w3.org/2000/svg" xmlns:xlink="http://www.w3.org/1999/xlink" x="0px" y="0px"
	 viewBox="0 0 512 512" style="enable-background:new 0 0 512 512;" xml:space="preserve">
<g>
	<path d="M499.9,182.3c-13.2,16.4-27.2,32-43.6,45.3c-19.8,16.1-41.8,28.5-65.9,37.2c-36.5,13.2-74.8,16.2-113.4,18
		c-28.8,1.3-57.6,2.4-86.3,4.9c-30.2,2.7-58.8,11.2-84.7,27.3c-18.8,11.7-34.5,26.7-48.4,43.7c-2.1,2.6-4.2,5.1-6.4,7.8
		c-13.2-10.8-26-21.4-39.1-32.2c0.2-0.5,0.4-1.1,0.8-1.6c19.7-24.8,42.1-46.6,69.6-62.8c26.1-15.4,54.5-24.8,84.4-29.9
		c30.2-5.1,60.9-5.5,91.5-7.1c25.1-1.3,50.3-2.7,75.2-5.8c31.2-3.9,59.8-15.3,84.9-34.3c16.1-12.2,29.5-27.1,42-42.8
		C473.6,160.7,486.8,171.5,499.9,182.3z"/>
	<path d="M322.4,36.4c-14.7,17.3-28,35.6-37.1,56.7c-10.4,24.1-14.8,49.3-14.2,75.5c0.2,11.5,1.4,23,2.1,34.4c0.1,1.2,0.1,2.5,0.2,4
		c-16.9,0.6-33.5,1.2-51.2,1.8c-0.6-16.9-1.8-33.6-1.6-50.2c0.3-27.7,5.5-54.4,15.6-80.1c9.5-24.1,23-45.6,39.3-65.6
		c2.5-3,4.9-6,7.4-9C296.1,14.8,309.3,25.6,322.4,36.4z"/>
	<path d="M228.4,512.1c-13-10.7-25.9-21.3-39.5-32.5c45.2-47.8,58.8-105.4,48.5-170.2c17.4-0.6,34.1-1.2,50.8-1.8
		C298.8,385.2,281.3,453.9,228.4,512.1z"/>
	<path d="M406.4,170c-31.3-25.7-62-50.9-93.2-76.6c4.3-7,8.6-13.9,13.1-21.1c32.8,27,65.2,53.6,98.2,80.7
		C418.4,158.6,412.6,164.2,406.4,170z"/>
	<path d="M87.1,363.4c6-5.6,12-11.2,18-16.8c31.1,25.6,61.8,50.8,93.2,76.5c-4.2,6.8-8.4,13.7-12.9,21
		C152.5,417.1,120.1,390.5,87.1,363.4z"/>
	<path d="M299.4,131.2c24.5,20.1,48,39.4,72.4,59.5c-9.6,3-18.5,5.7-27.4,8.3c-0.9,0.3-2.4-0.6-3.2-1.3
		c-14.3-11.6-28.5-23.3-42.7-35.1c-0.9-0.8-2-2.3-1.9-3.3C297.4,150.2,298.4,141.2,299.4,131.2z"/>
	<path d="M212,385.3c-24.5-20.2-48-39.4-72.1-59.2c5.5-2,10.6-3.5,15.5-5.7c8.9-4,15.8-2.2,23.1,4.7c10.7,10.1,22.6,18.8,33.9,28.4
		c1.3,1.1,2.4,3.5,2.3,5.2C214.1,367.3,213,375.8,212,385.3z"/>
</g>
</svg>
