<?xml version="1.0" encoding="utf-8"?>
<!-- Generator: Adobe Illustrator 23.0.0, SVG Export Plug-In . SVG Version: 6.00 Build 0)  -->
<svg version="1.1" id="Camada_1" xmlns="http://www.w3.org/2000/svg" xmlns:xlink="http://www.w3.org/1999/xlink" x="0px" y="0px"
	 viewBox="0 0 256 256" style="enable-background:new 0 0 256 256;" xml:space="preserve">
<path d="M97.8,173.2H158v15.1H97.8V173.2z"/>
<path d="M173.1,203.3H82.7l-7.5,15.1h105.4L173.1,203.3z"/>
<path d="M225.8,248.5c0-8.3-6.8-15.1-15.1-15.1H45.1c-8.3,0-15.1,6.8-15.1,15.1v7.5h195.8V248.5z"/>
<path d="M52.6,0h150.6v15.1H52.6V0z"/>
<path d="M52.6,30.1v23.6c0,41.5,33.8,75.3,75.3,75.3s75.3-33.8,75.3-75.3V30.1H52.6z"/>
<path d="M94,143.1c-4.2,0-7.5,3.4-7.5,7.5c0,4.2,3.4,7.5,7.5,7.5h67.8c4.2,0,7.5-3.4,7.5-7.5c0-4.2-3.4-7.5-7.5-7.5H94z"/>
</svg>
