<?xml version="1.0" encoding="utf-8"?>
<!-- Generator: Adobe Illustrator 23.0.2, SVG Export Plug-In . SVG Version: 6.00 Build 0)  -->
<svg version="1.1" id="Capa_1" xmlns="http://www.w3.org/2000/svg" xmlns:xlink="http://www.w3.org/1999/xlink" x="0px" y="0px"
	 viewBox="0 0 256 256" style="enable-background:new 0 0 256 256;" xml:space="preserve">
<g>
	<path d="M90.9,66.2c1.1-0.7,2.3-1.1,3.6-1.1c0.7,0,1.4,0.1,2.1,0.3c1.9,0.6,3.4,2.1,4.1,4c3.8,10.8,14,18.1,25.5,18.1
		c14.9,0,27-12.1,27-27c0-3.1,2.1-5.7,5.1-6.4c3-0.6,6,0.9,7.3,3.7c4.3,9.5,17.6,12.9,27.6,12.9c4.7,0,9.4-1.3,13.5-3.6
		c2-1.2,4.5-1.2,6.5,0c4.1,2.4,8.8,3.6,13.5,3.6c14.9,0,27-12.1,27-27c0-14.9-12.1-27-27-27c-6.4,0-11.8,1-15,2.9
		c-1.6,0.9-3.5,1.1-5.2,0.6c-1.7-0.6-3.2-1.8-3.9-3.5C198.1,7,187.1,0,176.4,0c-7.7,0-15.1,3.3-20.3,9.2c-1.2,1.4-3,2.2-4.9,2.2
		c-1.9,0-3.6-0.8-4.9-2.2C141.2,3.3,133.8,0,126.1,0c-11.5,0-21.7,7.3-25.5,18.1c-0.7,1.9-2.2,3.4-4.1,4c-1.9,0.6-4,0.4-5.7-0.8
		c-4.4-3-9.6-4.6-15-4.6c-14.9,0-27,12.1-27,27c0,14.9,12.1,27,27,27C81.2,70.8,86.4,69.2,90.9,66.2z"/>
	<path d="M63.7,81.9H42.3c-22,0-40,19.2-40,42.7v42.6c0,23.6,17.9,42.7,40,42.7h21.4v3.3c0,23.6,19.2,42.7,42.7,42.7h86.4
		c23.6,0,42.7-19.2,42.7-42.7V82.7c-2.9,0.7-5.9,1-9,1c-5.8,0-11.5-1.3-16.8-3.7c-5.2,2.4-11,3.7-16.8,3.7c-9.8,0-21.2-2.5-29.7-8.7
		c-5.8,14.9-20.3,25.5-37.3,25.5c-14.4,0-27.5-7.8-34.6-19.9c-4.9,2.1-10.2,3.2-15.7,3.2C71.6,83.8,67.5,83.2,63.7,81.9z
		 M63.7,191.4H42.3c-11.8,0-21.4-10.8-21.4-24.2v-42.6c0-13.3,9.6-24.2,21.4-24.2h21.4V191.4z M110.5,216c0,3.6-2.9,6.5-6.5,6.5
		c-3.6,0-6.5-2.9-6.5-6.5v-92.9c0-3.6,2.9-6.5,6.5-6.5c3.6,0,6.5,2.9,6.5,6.5V216z M156.2,216c0,3.6-2.9,6.5-6.5,6.5
		c-3.6,0-6.5-2.9-6.5-6.5v-92.9c0-3.6,2.9-6.5,6.5-6.5c3.6,0,6.5,2.9,6.5,6.5V216z M201.9,216c0,3.6-2.9,6.5-6.5,6.5
		s-6.5-2.9-6.5-6.5v-92.9c0-3.6,2.9-6.5,6.5-6.5s6.5,2.9,6.5,6.5V216z"/>
</g>
</svg>
