<?xml version="1.0" encoding="UTF-8"?>
<svg id="Capa_1" xmlns="http://www.w3.org/2000/svg" version="1.1" xmlns:xlink="http://www.w3.org/1999/xlink" viewBox="0 0 256 256">
  <!-- Generator: Adobe Illustrator 29.2.1, SVG Export Plug-In . SVG Version: 2.1.0 Build 116)  -->
  <defs>
    <style>
      .st0 {
        fill: #3f51b5;
      }
    </style>
  </defs>
  <path class="st0" d="M133.9,109.9c-3,3.3-7.8,4.4-12,2.6-3.9-1.7-8.5-.7-11.3,2.5h0l-4.2,4.6c-2.1,2.3-3,5.4-2.4,8.4.5,3,2.5,5.6,5.2,7.1,14.7,7.7,32.8,4.4,43.9-7.9,15.6-17.3,14.2-44.1-3.1-59.8-20.3-18.3-51.8-16.7-70.1,3.6-21.7,24.1-19.8,61.4,4.3,83.1,28.8,26,73.3,23.7,99.3-5.1,31.3-34.7,28.5-88.3-6.2-119.6C157,11,130.7,1.7,103.3,3.1c-27.3,1.6-52.5,13.5-70.8,33.9C-13.7,88.2-9.6,167.4,41.6,213.5c30.3,27.4,69.5,41.3,110.3,39.2,38.2-2,74-18,100.9-45.2l.3-.3c1.7-1.9,2.6-4.4,2.6-7-.1-2.7-1.3-5.3-3.3-7.1l-4.4-4c-3.9-3.6-10-3.4-13.7.4-47.8,48.2-124.8,50.3-175.3,4.8-40.6-36.6-43.8-99.4-7.2-139.9,13.7-15.2,32.5-24.2,53-25.2,20.3-1.2,40,5.8,55.2,19.5,24.1,21.7,26,58.9,4.3,83-16.4,18.2-44.5,19.6-62.7,3.2-13.5-12.2-14.6-33-2.4-46.5,8.8-9.7,23.8-10.5,33.6-1.7,6.6,6.1,7.2,16.5,1.1,23.2Z"/>
</svg>