<?xml version="1.0" encoding="UTF-8"?>
<svg id="Camada_1" xmlns="http://www.w3.org/2000/svg" version="1.1" xmlns:xlink="http://www.w3.org/1999/xlink" viewBox="0 0 256 256">
  <!-- Generator: Adobe Illustrator 29.2.1, SVG Export Plug-In . SVG Version: 2.1.0 Build 116)  -->
  <defs>
    <style>
      .st0 {
        fill: #673ab7;
      }
    </style>
  </defs>
  <path class="st0" d="M112.3,138.7"/>
  <path class="st0" d="M225.4,173.6V0h-40v22.7h-29.2V0h-56.4v22.7h-29.2V0H30.6v173.6c-.3,6.1.1,17.2,6.6,28.2,1.3,2.2,3.7,6.2,9.8,11.9,9.9,9.3,18.9,14.6,31.1,21.2,11.5,6.2,28.3,14.1,50,21.2,21.7-7.1,38.6-14.9,50-21.2,12.1-6.6,21.2-11.9,31.1-21.2,6-5.7,8.5-9.6,9.8-11.9,6.3-11.1,6.7-22.1,6.4-28.2Z"/>
</svg>