<?xml version="1.0" encoding="UTF-8"?>
<svg id="Capa_1" xmlns="http://www.w3.org/2000/svg" version="1.1" xmlns:xlink="http://www.w3.org/1999/xlink" viewBox="0 0 256 256">
  <!-- Generator: Adobe Illustrator 29.2.1, SVG Export Plug-In . SVG Version: 2.1.0 Build 116)  -->
  <defs>
    <style>
      .st0 {
        fill: #4caf50;
      }
    </style>
  </defs>
  <g id="Layer_5">
    <g>
      <path class="st0" d="M148.2,84.6H19.5c-10.7,0-19.5,8.7-19.5,19.5v128.6c0,10.7,8.8,19.5,19.5,19.5h128.6c10.7,0,19.5-8.8,19.5-19.5V104.1c0-10.8-8.7-19.5-19.4-19.5ZM39.4,231.1c-10.1,0-18.3-8.2-18.3-18.3s8.2-18.3,18.3-18.3,18.3,8.2,18.3,18.3-8.2,18.3-18.3,18.3ZM39.4,142.2c-10.1,0-18.3-8.2-18.3-18.3s8.2-18.3,18.3-18.3,18.3,8.2,18.3,18.3-8.2,18.3-18.3,18.3ZM83.9,184.4c-10.1,0-18.3-8.2-18.3-18.3s8.2-18.3,18.3-18.3,18.3,8.2,18.3,18.3c-.1,10.1-8.2,18.3-18.3,18.3ZM128.3,231.1c-10.1,0-18.3-8.2-18.3-18.3s8.2-18.3,18.3-18.3,18.3,8.2,18.3,18.3-8.2,18.3-18.3,18.3ZM128.3,142.2c-10.1,0-18.3-8.2-18.3-18.3s8.2-18.3,18.3-18.3,18.3,8.2,18.3,18.3-8.2,18.3-18.3,18.3Z"/>
      <path class="st0" d="M234.9,3.7H96.1c-11.6,0-21.1,9.5-21.1,21.1v31.5s-.4,7.9,8.7,7.9h70.4c19.2,0,34.9,15.7,34.9,34.9v76.5c0,9.1,8.2,9.1,12.5,9.1h33.5c11.6,0,21.1-9.5,21.1-21.1V24.8c-.1-11.6-9.6-21.1-21.2-21.1ZM213.5,66c-10.9,0-19.7-8.8-19.7-19.7s8.8-19.7,19.7-19.7,19.7,8.8,19.7,19.7-8.8,19.7-19.7,19.7Z"/>
    </g>
  </g>
</svg>