<?xml version="1.0" encoding="UTF-8"?>
<svg id="Camada_1" xmlns="http://www.w3.org/2000/svg" version="1.1" viewBox="0 0 254.6 224.9">
  <!-- Generator: Adobe Illustrator 29.2.1, SVG Export Plug-In . SVG Version: 2.1.0 Build 116)  -->
  <defs>
    <style>
      .st0 {
        fill: #f44336;
      }
    </style>
  </defs>
  <path class="st0" d="M87.9.7c-5.3-1.7-11.1-.3-15,3.7l-27.6,27.6,50.6,50.6L3.2,175.2c-4.2,4.2-4.3,11.1,0,15.4,0,0,0,0,0,0l31.1,31.2c4.2,4.2,11.1,4.3,15.4,0,0,0,0,0,0,0L202.3,69.2l-46.6-46.5L87.9.7Z"/>
  <path class="st0" d="M251.9,118.9l-38.5-38.5-59.9,59.9,38.5,38.5c3.8,3.7,9.9,3.5,13.6-.3l46-46c3.8-3.7,4-9.7.3-13.6,0,0,0,0,0,0Z"/>
</svg>