<?xml version="1.0" encoding="UTF-8"?>
<svg id="Capa_1" xmlns="http://www.w3.org/2000/svg" version="1.1" xmlns:xlink="http://www.w3.org/1999/xlink" viewBox="0 0 256 256">
  <!-- Generator: Adobe Illustrator 29.2.1, SVG Export Plug-In . SVG Version: 2.1.0 Build 116)  -->
  <defs>
    <style>
      .st0 {
        fill: #ff7043;
      }
    </style>
  </defs>
  <path class="st0" d="M177.6,96.3l-17.3-9.5c21.7-17.2,24.8-48.1,6.9-68.9-17.8-20.9-49.7-23.9-71.4-6.7s-24.8,48-6.9,68.9c2.1,2.4,4.4,4.7,6.9,6.7l-17.3,9.5c-2.2,1.2-3,3.9-1.7,6.1.8,1.4,2.4,2.2,4.1,2.2h94.3c2.6,0,4.6-1.9,4.6-4.4,0-1.6-.8-3.1-2.2-3.9ZM74.2,205.2l-37.7,33v17.8h183v-17.8l-37.7-33c-1.9-1.7-4.5-2.6-7.2-2.6h-93.2c-2.8,0-5.4.9-7.2,2.6h0ZM151.6,113.5h-47.3c-2.6,0-4.9,1.8-5.1,4.1-2.2,23.9-8,47.5-17.5,70-1,2.3.3,4.9,3,5.7.6.2,1.1.3,1.7.3h83c2.9,0,5-2.1,5-4.5s-.1-1-.3-1.5c-9.5-22.5-15.4-46.1-17.5-70,0-2.3-2.4-4.1-5-4.1Z"/>
</svg>