<?xml version="1.0" encoding="utf-8"?>
<!-- Generator: Adobe Illustrator 21.1.0, SVG Export Plug-In . SVG Version: 6.00 Build 0)  -->
<svg version="1.1" id="Camada_1" xmlns="http://www.w3.org/2000/svg" xmlns:xlink="http://www.w3.org/1999/xlink" x="0px" y="0px"
	 viewBox="0 0 256 256" style="enable-background:new 0 0 256 256;" xml:space="preserve">
<path d="M187.6,108.7h-15.3v22.1h15.3c2.4,0,4.8-0.8,7.2-2.8s3.6-4.4,3.6-8.1s-1.2-6.4-3.6-8.5C192.4,109.9,190,108.7,187.6,108.7z
	 M128,0C57.6,0,0,57.6,0,128c0,70.8,57.2,128,128,128s128-57.2,128-128C256,57.6,198.8,0,128,0z M132.4,159.4c2.8,3.2,4,5.6,4,8.1
	c0,2-1.6,4.8-4.8,7.6s-5.6,4.4-8.1,4.4c-2,0-4.8-1.6-7.6-4.8L93,147.3l-23,27.4c-2.8,3.2-5.2,4.8-7.6,4.8c-2,0-4.8-1.6-8.1-4.4
	c-3.2-2.8-4.8-5.6-4.8-7.6s1.6-4.8,4.4-8.1l24.6-27.8l-24.6-27.8c-2.8-3.2-4.4-5.6-4.4-8.1c0-2,1.6-4.8,4.8-7.6
	c3.2-2.8,5.6-4.4,8.1-4.4c2.4,0,4.4,1.6,7.6,4.8l23,27.4l22.9-27.4c2.8-3.2,5.2-4.8,7.6-4.8c2,0,4.8,1.6,7.6,4.4
	c3.2,2.8,4.8,5.6,4.8,7.6c0,2.4-1.2,4.8-4,8.1l-24.6,27.8L132.4,159.4z M216.6,134.4c-2,4.4-4.8,7.6-8.1,10.5
	c-6.8,5.2-13.7,8.1-20.9,8.1h-15.3v14c0,2,0,3.2,0,4.4c0,0.8-0.4,2-1.2,3.2c-1.2,2.4-4.4,3.2-9.7,3.2c-5.6,0-8.9-1.6-10.1-4.4
	c-0.4-1.6-0.8-3.6-0.8-6.4V97.8c0-2,0-3.2,0-4.4c0-0.8,0.4-2,1.2-3.2c1.2-2.4,4.4-3.2,9.7-3.2h25.8c7.2,0,14.1,2.8,20.9,8.1
	c3.2,2.4,6,6,8.1,10.5c2,4.4,3.2,9.3,3.2,14.9C219.8,125.2,218.6,130,216.6,134.4z"/>
</svg>
