<?xml version="1.0" encoding="utf-8"?>
<!-- Generator: Adobe Illustrator 21.1.0, SVG Export Plug-In . SVG Version: 6.00 Build 0)  -->
<svg version="1.1" id="Camada_1" xmlns="http://www.w3.org/2000/svg" xmlns:xlink="http://www.w3.org/1999/xlink" x="0px" y="0px"
	 viewBox="0 0 256 256" style="enable-background:new 0 0 256 256;" xml:space="preserve">
<path d="M113.4,82.7c-2.1,2.8-3.1,6-3.1,9.4c0,3.1,0.9,6.1,2.8,8.8c1.9,2.7,4.8,4.9,8.6,6.5V76.6C118.3,77.8,115.5,79.9,113.4,82.7
	L113.4,82.7z"/>
<path d="M161.8,177.4c-6.5,7.4-15.5,11.9-27.1,13.5v16.6h-12.9v-16.2c-10.2-1.3-18.6-5.1-25-11.4s-10.5-15.4-12.3-27.1l23.2-2.5
	c0.9,4.8,2.7,8.8,5.3,12.3c2.6,3.4,5.5,5.9,8.7,7.5v-37.3c-11.6-3.3-20.1-8.4-25.5-15c-5.4-6.7-8.2-14.9-8.2-24.5
	c0-9.7,3.1-17.9,9.2-24.5c6.1-6.6,14.3-10.4,24.5-11.4v-8.8h12.9v8.8c9.4,1.1,16.9,4.3,22.5,9.7c5.6,5.3,9.1,12.4,10.7,21.3
	l-22.5,2.9c-1.4-7-4.9-11.8-10.7-14.2v34.7c14.2,3.9,23.9,8.8,29,15c5.2,6.1,7.7,14,7.7,23.6C171.5,161,168.2,170,161.8,177.4
	L161.8,177.4z M128,0C57.4,0,0,57.4,0,128s57.4,128,128,128s128-57.4,128-128S198.6,0,128,0z"/>
<path d="M134.7,136.6v34.7c4.4-0.8,8-2.9,10.9-6.2c2.8-3.3,4.2-7.2,4.2-11.6c0-4-1.1-7.4-3.5-10.3
	C143.8,140.3,140,138.1,134.7,136.6L134.7,136.6z"/>
</svg>
