<?xml version="1.0" encoding="utf-8"?>
<!-- Generator: Adobe Illustrator 22.1.0, SVG Export Plug-In . SVG Version: 6.00 Build 0)  -->
<svg version="1.1" id="Capa_1" xmlns="http://www.w3.org/2000/svg" xmlns:xlink="http://www.w3.org/1999/xlink" x="0px" y="0px"
	 viewBox="0 0 256 256" style="enable-background:new 0 0 256 256;" xml:space="preserve">
<g>
	<g>
		<path d="M78.3,175.8c4.3,6.1,9.7,12,16.2,17.5c6.5,5.5,13.1,10.3,19.8,14.3c6.7,4,14.3,8,22.8,11.9l-0.1-0.1l0.6,0.1
			c-6.4-12.2-9.6-22.9-9.6-32c0-4.9,1.2-9.5,3.5-13.8c2.3-4.3,5.4-8.2,9.1-11.6c3.8-3.4,7.9-6.9,12.5-10.3
			c4.6-3.4,9.1-7.1,13.7-11.1c4.6-4,8.7-8.1,12.5-12.6c3.8-4.4,6.8-9.8,9.1-16.1c2.3-6.3,3.5-13.1,3.5-20.6c0-9.3-1.3-18.1-3.9-26.3
			c-2.6-8.2-6.1-15.4-10.3-21.5c-4.3-6.1-9.7-12-16.2-17.5c-6.5-5.5-13.1-10.3-19.8-14.3c-6.7-4-14.3-8-22.8-11.9l0.1,0.1L118.6,0
			c6.3,12.4,9.4,23,9.4,32c0,4.9-1.2,9.5-3.5,13.8c-2.3,4.3-5.4,8.2-9.1,11.6c-3.8,3.4-7.9,6.9-12.5,10.3
			c-4.6,3.4-9.1,7.1-13.7,11.1c-4.6,4-8.7,8.1-12.5,12.6c-3.8,4.4-6.8,9.8-9.1,16.1c-2.3,6.3-3.5,13.1-3.5,20.6
			c0,9.3,1.3,18.1,3.9,26.3C70.6,162.5,74,169.6,78.3,175.8z"/>
		<path d="M227.1,239.1c-0.9-0.9-2-1.4-3.2-1.4H32.1c-1.2,0-2.3,0.5-3.2,1.4c-0.9,0.9-1.4,2-1.4,3.2v9.1c0,1.2,0.5,2.3,1.4,3.2
			c0.9,0.9,2,1.4,3.2,1.4h191.9c1.2,0,2.3-0.5,3.2-1.4c0.9-0.9,1.4-2,1.4-3.2v-9.1C228.5,241,228,240,227.1,239.1z"/>
	</g>
</g>
</svg>
