<?xml version="1.0" encoding="utf-8"?>
<!-- Generator: Adobe Illustrator 21.1.0, SVG Export Plug-In . SVG Version: 6.00 Build 0)  -->
<svg version="1.1" id="Camada_1" xmlns="http://www.w3.org/2000/svg" xmlns:xlink="http://www.w3.org/1999/xlink" x="0px" y="0px"
	 viewBox="0 0 256 256" style="enable-background:new 0 0 256 256;" xml:space="preserve">
<g>
	<path d="M123.1,118.1c2.7,2.7,7.1,2.7,9.8,0c13.5-13.4,50.1-49.9,50.9-50.6c15.4-15.4,15.4-40.5,0-55.9
		C168.4-3.8,143.4-3.9,128,11.5C112.5-3.9,87.6-3.8,72.2,11.6C56.8,27,56.8,52,72.2,67.5C73,68.2,109.6,104.7,123.1,118.1z"/>
	<path d="M132.9,137.9c-2.7-2.7-7.1-2.7-9.8,0c-13.5,13.4-50.1,49.9-50.9,50.6c-15.4,15.4-15.4,40.5,0,55.9
		c15.4,15.4,40.3,15.4,55.8,0.1c15.4,15.3,40.4,15.3,55.8-0.1c15.4-15.4,15.4-40.5,0-55.9C183,187.8,146.4,151.3,132.9,137.9z"/>
	<path d="M244.4,72.2c-15.4-15.4-40.5-15.4-55.9,0c-0.8,0.7-37.2,37.4-50.6,50.9c-2.7,2.7-2.7,7.1,0,9.8
		c13.4,13.5,49.9,50.1,50.6,50.9c15.4,15.4,40.5,15.4,55.9,0c15.4-15.4,15.4-40.3,0.1-55.8C259.9,112.5,259.8,87.6,244.4,72.2z"/>
	<path d="M118.1,132.9c2.7-2.7,2.7-7.1,0-9.8C104.7,109.6,68.2,73,67.5,72.2C52,56.8,27,56.8,11.6,72.2
		C-3.8,87.6-3.9,112.5,11.5,128c-15.3,15.4-15.3,40.4,0.1,55.8c15.4,15.4,40.5,15.4,55.9,0C68.2,183,104.7,146.4,118.1,132.9z"/>
</g>
</svg>
